<svg xmlns="http://www.w3.org/2000/svg" xmlns:xlink="http://www.w3.org/1999/xlink" width="500" zoomAndPan="magnify" viewBox="0 0 375 374.999991" height="500" preserveAspectRatio="xMidYMid meet" version="1.0"><defs><clipPath id="a0afcd9c11"><path d="M 216 4.773438 L 303 4.773438 L 303 103 L 216 103 Z M 216 4.773438 " clip-rule="nonzero"/></clipPath></defs><path fill="#fde16e" d="M 276.484375 275.125 C 276.484375 274.324219 276.484375 273.523438 276.484375 272.722656 L 276.484375 272.855469 C 275.953125 261.792969 271.152344 251.398438 263.023438 243.53125 C 271.019531 235.402344 275.417969 224.738281 275.417969 213.410156 L 275.417969 213.140625 C 275.417969 198.078125 267.820312 184.351562 254.890625 176.351562 C 252.226562 174.351562 250.226562 173.019531 248.226562 171.953125 L 247.292969 171.421875 C 246.359375 171.019531 245.5625 170.488281 244.628906 170.089844 C 242.363281 169.023438 240.097656 167.957031 237.964844 167.023438 C 235.832031 166.089844 233.832031 165.15625 231.699219 164.355469 L 231.03125 164.089844 C 225.300781 161.691406 218.371094 158.625 216.238281 151.558594 C 215.703125 149.5625 215.4375 147.695312 215.703125 145.5625 C 224.101562 124.902344 227.964844 105.574219 226.234375 92.511719 C 225.167969 78.648438 213.4375 67.851562 199.574219 67.851562 C 193.445312 67.851562 187.445312 69.984375 182.78125 73.851562 C 178.113281 76.914062 171.316406 87.980469 165.71875 101.042969 C 161.585938 107.972656 157.585938 114.636719 153.722656 120.636719 C 151.054688 124.902344 148.125 129.167969 145.058594 133.300781 C 139.59375 140.097656 134.527344 145.429688 129.0625 149.828125 C 124.929688 152.757812 120.933594 155.160156 116.800781 157.160156 C 112.933594 158.625 108.933594 159.691406 104.535156 160.359375 C 100.671875 160.757812 96.40625 160.890625 91.339844 160.890625 L 91.207031 165.15625 C 88.808594 165.023438 86.542969 164.757812 84.144531 164.488281 C 82.808594 164.355469 81.476562 164.355469 80.144531 164.222656 C 77.34375 164.355469 74.8125 165.15625 72.414062 166.753906 C 69.613281 168.621094 67.347656 171.289062 66.148438 174.351562 C 65.347656 175.6875 64.816406 177.285156 64.546875 178.753906 C 64.28125 179.953125 64.148438 181.285156 64.28125 182.484375 C 62.816406 185.148438 62.148438 188.082031 62.28125 191.148438 C 62.550781 195.28125 64.414062 199.277344 67.480469 202.078125 C 69.347656 203.8125 71.347656 204.746094 73.480469 205.410156 C 72.414062 210.476562 72.28125 215.808594 72.144531 220.871094 C 72.011719 224.472656 71.878906 228.070312 71.746094 231.667969 C 71.746094 234.070312 71.613281 236.46875 71.613281 238.867188 C 71.347656 241.667969 71.078125 244.597656 70.945312 247.398438 C 70.28125 256.328125 69.746094 265.394531 69.613281 274.324219 C 69.480469 279.65625 69.613281 285.121094 69.746094 290.453125 C 69.480469 295.515625 69.347656 300.449219 69.347656 305.515625 C 69.347656 308.980469 69.746094 312.445312 69.878906 315.910156 C 69.746094 315.910156 69.613281 315.910156 69.480469 315.910156 C 66.546875 316.3125 64.015625 317.511719 61.75 319.242188 C 58.550781 321.777344 56.417969 325.640625 56.019531 329.773438 C 55.882812 331.105469 55.882812 332.574219 56.019531 333.90625 C 55.75 335.503906 55.617188 337.238281 55.882812 338.835938 C 56.417969 342.4375 58.285156 345.902344 60.949219 348.433594 C 62.683594 350.96875 65.347656 353.234375 68.148438 354.03125 C 70.28125 354.566406 72.28125 355.234375 74.414062 355.367188 C 75.746094 355.367188 76.945312 355.367188 78.277344 355.5 C 80.277344 355.5 82.410156 355.5 84.410156 355.367188 L 84.410156 356.433594 L 86.542969 356.433594 C 87.609375 356.433594 88.808594 356.433594 89.875 356.433594 C 93.339844 356.433594 97.472656 356.433594 101.472656 356.832031 C 109.335938 358.164062 116.800781 360.699219 122.398438 362.832031 C 125.730469 364.03125 129.328125 365.230469 133.460938 366.429688 C 135.726562 367.097656 137.992188 367.496094 139.992188 367.894531 C 151.855469 371.09375 165.320312 372.828125 178.914062 372.828125 C 207.4375 372.828125 233.429688 365.496094 248.359375 353.234375 C 248.226562 353.367188 248.09375 353.5 247.960938 353.632812 C 255.023438 348.433594 260.488281 341.238281 263.421875 332.839844 L 263.289062 332.972656 C 264.890625 328.308594 265.820312 323.507812 265.820312 318.578125 C 265.820312 313.910156 265.15625 309.378906 263.6875 304.980469 C 269.152344 299.515625 273.019531 292.585938 274.886719 285.121094 C 276.085938 282.320312 276.484375 278.722656 276.484375 275.125 Z M 276.484375 275.125 " fill-opacity="1" fill-rule="nonzero"/><path fill="#6678df" d="M 6.964844 148.761719 C 0.433594 149.027344 -4.898438 154.625 -4.898438 161.15625 L -3.164062 362.695312 C -3.164062 365.894531 -1.832031 368.960938 0.566406 371.359375 C 2.96875 373.761719 6.03125 374.960938 9.230469 374.960938 L 86.808594 374.292969 C 86.941406 374.292969 87.074219 374.292969 87.207031 374.292969 C 93.738281 374.027344 99.070312 368.429688 99.070312 361.898438 L 97.339844 160.359375 C 97.339844 160.222656 97.339844 160.089844 97.339844 159.824219 C 97.070312 153.292969 91.472656 147.960938 84.941406 148.09375 L 7.367188 148.761719 C 7.230469 148.761719 7.097656 148.761719 6.964844 148.761719 Z M 6.964844 148.761719 " fill-opacity="1" fill-rule="nonzero"/><path fill="#ffffff" d="M 34.957031 312.578125 C 32.023438 315.511719 30.425781 319.511719 30.425781 323.640625 C 30.558594 331.90625 37.625 339.503906 46.152344 339.238281 C 50.417969 339.105469 54.152344 337.636719 57.21875 334.570312 C 60.148438 331.640625 61.75 327.640625 61.75 323.507812 C 61.617188 315.246094 54.550781 307.648438 46.019531 307.914062 C 41.753906 308.046875 37.890625 309.511719 34.957031 312.578125 Z M 34.957031 312.578125 " fill-opacity="1" fill-rule="nonzero"/><g clip-path="url(#a0afcd9c11)"><path fill="#fde16e" d="M 302.746094 53.324219 C 302.746094 49.191406 299.410156 45.992188 295.28125 45.859375 C 294.082031 45.859375 292.878906 45.726562 291.679688 45.726562 C 289.28125 45.324219 286.882812 44.660156 284.617188 43.859375 C 282.484375 42.792969 280.351562 41.59375 278.351562 40.261719 C 276.484375 38.792969 274.886719 37.0625 273.285156 35.195312 C 271.953125 33.328125 270.753906 31.195312 269.6875 29.0625 C 268.753906 26.796875 268.085938 24.398438 267.6875 21.867188 C 267.421875 19.332031 267.421875 16.933594 267.6875 14.402344 C 267.820312 14.132812 267.820312 13.867188 267.820312 13.46875 C 267.953125 12.402344 267.953125 11.335938 267.6875 10.269531 C 267.421875 9.734375 267.15625 9.070312 266.886719 8.535156 C 265.957031 6.9375 264.355469 5.605469 262.488281 5.070312 C 261.824219 4.9375 261.15625 4.804688 260.488281 4.804688 C 260.222656 4.804688 260.089844 4.804688 259.824219 4.804688 C 259.558594 4.804688 259.421875 4.804688 259.15625 4.804688 C 258.492188 4.804688 257.824219 4.9375 257.15625 5.070312 C 255.292969 5.605469 253.691406 6.804688 252.757812 8.535156 C 252.492188 9.070312 252.226562 9.734375 251.960938 10.269531 C 251.691406 11.335938 251.558594 12.402344 251.824219 13.46875 C 251.824219 13.734375 251.960938 14 251.960938 14.402344 C 252.226562 16.933594 252.226562 19.332031 251.960938 21.867188 C 251.558594 24.265625 250.894531 26.664062 249.960938 29.0625 C 249.027344 31.195312 247.695312 33.195312 246.359375 35.195312 C 244.894531 37.0625 243.160156 38.660156 241.296875 40.261719 C 239.296875 41.726562 237.296875 42.925781 235.03125 43.859375 C 232.765625 44.660156 230.367188 45.324219 227.964844 45.726562 C 226.765625 45.859375 225.566406 45.859375 224.367188 45.859375 C 220.367188 45.859375 216.902344 49.191406 216.902344 53.324219 C 216.902344 53.457031 216.902344 53.589844 216.902344 53.722656 C 216.902344 53.855469 216.902344 53.988281 216.902344 54.121094 C 216.902344 58.253906 220.234375 61.453125 224.367188 61.585938 C 225.566406 61.585938 226.765625 61.71875 227.964844 61.71875 C 230.367188 62.121094 232.765625 62.785156 235.03125 63.585938 C 237.164062 64.652344 239.296875 65.851562 241.296875 67.183594 C 243.160156 68.652344 244.761719 70.382812 246.359375 72.25 C 247.695312 74.117188 248.894531 76.25 249.960938 78.382812 C 250.894531 80.648438 251.558594 83.046875 251.960938 85.578125 C 252.226562 88.113281 252.226562 90.511719 251.960938 93.042969 C 251.824219 93.3125 251.824219 93.578125 251.824219 93.976562 C 251.691406 95.042969 251.691406 96.109375 251.960938 97.175781 C 252.226562 97.710938 252.492188 98.375 252.757812 98.910156 C 253.691406 100.507812 255.292969 101.839844 257.15625 102.375 C 257.824219 102.507812 258.492188 102.640625 259.15625 102.640625 C 259.421875 102.640625 259.558594 102.640625 259.824219 102.640625 C 260.089844 102.640625 260.222656 102.640625 260.488281 102.640625 C 261.15625 102.640625 261.824219 102.507812 262.488281 102.375 C 264.355469 101.839844 265.957031 100.640625 266.886719 98.910156 C 267.15625 98.375 267.421875 97.710938 267.6875 97.175781 C 267.953125 96.109375 268.085938 95.042969 267.820312 93.976562 C 267.820312 93.710938 267.6875 93.445312 267.6875 93.042969 C 267.421875 90.511719 267.421875 88.113281 267.6875 85.578125 C 268.085938 83.179688 268.753906 80.78125 269.6875 78.382812 C 270.621094 76.25 271.953125 74.25 273.285156 72.25 C 274.753906 70.382812 276.484375 68.785156 278.351562 67.183594 C 280.351562 65.71875 282.351562 64.519531 284.617188 63.585938 C 286.882812 62.785156 289.28125 62.121094 291.679688 61.71875 C 292.878906 61.585938 294.082031 61.585938 295.28125 61.585938 C 299.277344 61.585938 302.746094 58.253906 302.746094 54.121094 C 302.746094 53.988281 302.746094 53.855469 302.746094 53.722656 C 302.746094 53.589844 302.746094 53.457031 302.746094 53.324219 Z M 265.289062 59.1875 C 263.6875 60.789062 262.089844 62.652344 260.625 64.785156 C 260.488281 65.050781 260.355469 65.1875 260.222656 65.453125 C 258.625 63.054688 256.890625 60.921875 255.023438 59.1875 C 253.027344 57.320312 251.160156 55.589844 249.027344 54.253906 C 248.761719 54.121094 248.628906 53.988281 248.359375 53.855469 C 250.625 52.390625 252.757812 50.523438 254.890625 48.390625 C 256.757812 46.65625 258.492188 44.527344 260.089844 42.125 C 261.691406 44.527344 263.421875 46.65625 265.289062 48.390625 C 267.289062 50.257812 269.152344 51.988281 271.285156 53.324219 C 271.554688 53.457031 271.6875 53.589844 271.953125 53.722656 C 269.6875 55.1875 267.421875 57.054688 265.289062 59.1875 Z M 265.289062 59.1875 " fill-opacity="1" fill-rule="nonzero"/></g><path fill="#fde16e" d="M 327.535156 57.320312 C 327.269531 57.320312 327.136719 57.320312 326.871094 57.320312 C 326.605469 57.320312 326.46875 57.320312 326.203125 57.320312 C 325.402344 57.320312 324.738281 57.453125 323.9375 57.589844 C 321.804688 58.121094 319.9375 59.585938 318.871094 61.453125 L 318.738281 61.855469 L 318.074219 63.453125 C 317.804688 64.652344 317.671875 65.851562 317.941406 67.183594 C 317.941406 67.453125 318.074219 67.851562 318.207031 68.117188 C 318.472656 70.917969 318.472656 73.714844 318.207031 76.515625 C 317.804688 79.183594 317.007812 81.980469 315.941406 84.648438 C 314.875 87.046875 313.539062 89.3125 311.941406 91.578125 C 310.207031 93.710938 308.34375 95.578125 306.210938 97.308594 C 303.945312 98.910156 301.679688 100.242188 299.144531 101.441406 C 296.613281 102.375 293.945312 103.175781 291.28125 103.574219 C 289.949219 103.707031 288.613281 103.839844 287.148438 103.839844 C 282.484375 103.839844 278.75 107.707031 278.75 112.238281 C 278.75 112.371094 278.75 112.503906 278.75 112.636719 C 278.75 112.773438 278.75 112.90625 278.75 113.039062 C 278.75 117.570312 282.484375 121.4375 287.148438 121.4375 C 288.613281 121.4375 289.949219 121.570312 291.28125 121.703125 C 293.945312 122.101562 296.613281 122.902344 299.144531 123.835938 C 301.679688 125.035156 303.945312 126.367188 306.210938 127.96875 C 308.210938 129.699219 310.207031 131.566406 311.941406 133.699219 C 313.539062 135.964844 314.875 138.230469 315.941406 140.628906 C 317.007812 143.296875 317.671875 145.960938 318.207031 148.761719 C 318.472656 151.558594 318.472656 154.359375 318.207031 157.160156 C 318.074219 157.425781 318.074219 157.824219 317.941406 158.089844 C 317.671875 159.292969 317.804688 160.492188 318.074219 161.824219 L 318.738281 163.421875 L 318.871094 163.824219 C 319.9375 165.6875 321.804688 167.15625 323.9375 167.6875 C 324.738281 167.957031 325.402344 167.957031 326.203125 167.957031 C 326.46875 167.957031 326.605469 167.957031 326.871094 167.957031 C 327.136719 167.957031 327.269531 167.957031 327.535156 167.957031 C 328.335938 167.957031 329.003906 167.820312 329.804688 167.6875 C 331.933594 167.15625 333.800781 165.6875 334.867188 163.824219 L 335 163.421875 L 335.667969 161.824219 C 335.933594 160.625 336.066406 159.425781 335.800781 158.089844 C 335.800781 157.824219 335.667969 157.425781 335.535156 157.160156 C 335.269531 154.359375 335.269531 151.558594 335.535156 148.761719 C 335.933594 146.09375 336.734375 143.296875 337.800781 140.628906 C 338.867188 138.230469 340.199219 135.964844 341.800781 133.699219 C 343.53125 131.566406 345.398438 129.699219 347.53125 127.96875 C 349.796875 126.367188 352.0625 125.035156 354.59375 123.835938 C 357.128906 122.902344 359.792969 122.101562 362.460938 121.703125 C 363.792969 121.570312 365.125 121.4375 366.589844 121.4375 C 371.257812 121.4375 374.988281 117.570312 374.988281 113.039062 C 374.988281 112.90625 374.988281 112.773438 374.988281 112.636719 C 374.988281 112.503906 374.988281 112.371094 374.988281 112.238281 C 374.988281 107.707031 371.257812 103.839844 366.589844 103.839844 C 365.125 103.839844 363.792969 103.707031 362.460938 103.574219 C 359.792969 103.175781 357.128906 102.375 354.59375 101.441406 C 352.0625 100.242188 349.796875 98.910156 347.53125 97.308594 C 345.53125 95.578125 343.53125 93.710938 341.800781 91.578125 C 340.199219 89.3125 338.867188 87.046875 337.800781 84.648438 C 336.734375 81.980469 336.066406 79.316406 335.535156 76.515625 C 335.269531 73.714844 335.269531 70.917969 335.535156 68.117188 C 335.667969 67.851562 335.667969 67.453125 335.800781 67.183594 C 336.066406 65.984375 335.933594 64.785156 335.667969 63.453125 L 335 61.855469 L 334.867188 61.453125 C 333.800781 59.585938 331.933594 58.121094 329.804688 57.589844 C 329.003906 57.453125 328.335938 57.320312 327.535156 57.320312 Z M 327.535156 57.320312 " fill-opacity="1" fill-rule="nonzero"/></svg>