<svg xmlns="http://www.w3.org/2000/svg" xmlns:xlink="http://www.w3.org/1999/xlink" width="1000" zoomAndPan="magnify" viewBox="0 0 750 749.999995" height="1000" preserveAspectRatio="xMidYMid meet" version="1.0"><defs><filter x="0%" y="0%" width="100%" height="100%" id="40aca85eff"><feColorMatrix values="0 0 0 0 1 0 0 0 0 1 0 0 0 0 1 0 0 0 1 0" color-interpolation-filters="sRGB"/></filter><mask id="2ff7c692f7"><g filter="url(#40aca85eff)"><rect x="-75" width="900" fill="#000000" y="-74.999999" height="899.999994" fill-opacity="0.05"/></g></mask><clipPath id="e4d3ccd3b7"><path d="M 0 0 L 336 0 L 336 750 L 0 750 Z M 0 0 " clip-rule="nonzero"/></clipPath><clipPath id="38d95da663"><path d="M 0 607 L 750 607 L 750 750 L 0 750 Z M 0 607 " clip-rule="nonzero"/></clipPath><clipPath id="c6dd8af304"><path d="M 0 0 L 750 0 L 750 750 L 0 750 Z M 0 0 " clip-rule="nonzero"/></clipPath><clipPath id="fdf3bc91a5"><path d="M 0 0 L 750 0 L 750 447 L 0 447 Z M 0 0 " clip-rule="nonzero"/></clipPath><clipPath id="87f5b14b36"><path d="M 94 0 L 750 0 L 750 338 L 94 338 Z M 94 0 " clip-rule="nonzero"/></clipPath><clipPath id="b10003a8e0"><path d="M 0 147 L 101 147 L 101 328 L 0 328 Z M 0 147 " clip-rule="nonzero"/></clipPath><clipPath id="7b9c125ea2"><path d="M 0 0 L 228 0 L 228 680 L 0 680 Z M 0 0 " clip-rule="nonzero"/></clipPath><clipPath id="ec99478d0a"><path d="M 0 0 L 67 0 L 67 608 L 0 608 Z M 0 0 " clip-rule="nonzero"/></clipPath><clipPath id="c1454f4828"><rect x="0" width="750" y="0" height="750"/></clipPath></defs><rect x="-75" width="900" fill="#ffffff" y="-74.999999" height="899.999994" fill-opacity="1"/><rect x="-75" width="900" fill="#845c6b" y="-74.999999" height="899.999994" fill-opacity="1"/><g mask="url(#2ff7c692f7)"><g transform="matrix(1, 0, 0, 1, 0, -0.000000000000042435)"><g clip-path="url(#c1454f4828)"><g clip-path="url(#e4d3ccd3b7)"><path fill="#ffffff" d="M -214.8125 750.472656 C -170.894531 787.652344 -40.59375 833.914062 79.976562 820.390625 C 166.363281 810.707031 234.480469 773.429688 282.492188 709.652344 C 370.421875 592.722656 330.699219 499.449219 295.664062 417.207031 C 273.058594 364.160156 251.699219 314.003906 262.578125 260.855469 C 292.621094 114.035156 277.75 58.492188 198.898438 23.109375 C 126.238281 -9.53125 68.796875 -46.808594 -9.304688 -230.558594 C -50.175781 -326.773438 -104.472656 -355.320312 -148.089844 -378.277344 C -185.917969 -398.1875 -213.316406 -412.613281 -216.160156 -464.3125 C -222.695312 -582.089844 -256.234375 -635.289062 -441.730469 -717.980469 C -536.550781 -760.25 -578.019531 -834.757812 -618.144531 -906.769531 C -655.371094 -973.59375 -693.847656 -1042.660156 -774.59375 -1081.886719 C -868.714844 -1127.597656 -935.738281 -1099.054688 -1006.703125 -1068.8125 C -1061.449219 -1045.503906 -1118.042969 -1021.351562 -1190.953125 -1031.082031 C -1358.734375 -1053.441406 -1477.40625 -991.109375 -1478.554688 -990.511719 C -1481 -989.214844 -1481.898438 -986.167969 -1480.601562 -983.773438 C -1479.304688 -981.328125 -1476.257812 -980.429688 -1473.863281 -981.726562 C -1472.714844 -982.324219 -1356.785156 -1043.160156 -1192.300781 -1021.203125 C -1116.695312 -1011.121094 -1058.804688 -1035.773438 -1002.8125 -1059.628906 C -933.992188 -1088.921875 -868.964844 -1116.621094 -778.9375 -1072.902344 C -700.984375 -1035.027344 -664.953125 -970.347656 -626.828125 -901.878906 C -585.90625 -828.417969 -543.636719 -752.464844 -445.722656 -708.796875 C -263.570312 -627.601562 -232.476562 -578.792969 -226.039062 -463.714844 C -222.847656 -406.375 -191.855469 -390.054688 -152.628906 -369.445312 C -110.410156 -347.234375 -57.859375 -319.589844 -18.386719 -226.617188 C 54.425781 -55.242188 108.421875 -6.585938 194.90625 32.242188 C 269.066406 65.527344 282.089844 116.382812 252.898438 258.910156 C 241.417969 315.152344 263.328125 366.652344 286.582031 421.199219 C 322.214844 504.890625 359.09375 591.375 274.605469 703.710938 C 228.34375 765.195312 162.519531 801.175781 78.976562 810.558594 C -48.828125 824.882812 -173.042969 772.730469 -208.226562 742.9375 C -251.042969 706.707031 -400.308594 592.023438 -522.277344 637.988281 C -626.378906 677.210938 -727.882812 572.710938 -788.519531 510.332031 L -794.007812 504.691406 C -866.472656 430.28125 -1027.714844 353.777344 -1175.03125 447.898438 C -1261.71875 503.09375 -1309.578125 564.027344 -1294.355469 599.460938 C -1281.429688 629.554688 -1228.03125 634.644531 -1144.042969 613.78125 C -1000.714844 578.25 -964.484375 629.054688 -909.636719 706.007812 C -889.777344 733.855469 -867.21875 765.445312 -836.527344 796.636719 C -790.367188 843.445312 -759.425781 871.890625 -738.964844 890.707031 C -708.921875 918.351562 -699.839844 926.6875 -693.601562 945.402344 C -692.902344 947.496094 -690.953125 948.792969 -688.859375 948.792969 C -688.308594 948.792969 -687.8125 948.695312 -687.261719 948.546875 C -684.667969 947.648438 -683.21875 944.851562 -684.117188 942.207031 C -691.203125 921.046875 -701.535156 911.566406 -732.226562 883.371094 C -752.636719 864.605469 -783.480469 836.210938 -829.441406 789.597656 C -859.582031 759.007812 -881.890625 727.765625 -901.554688 700.21875 C -956.75 622.867188 -996.574219 566.921875 -1146.488281 604.101562 C -1256.628906 631.398438 -1280.183594 607.195312 -1285.222656 595.519531 C -1295.851562 570.765625 -1264.3125 516.617188 -1169.84375 456.234375 C -1010.746094 354.527344 -849.902344 461.671875 -801.34375 511.578125 L -795.855469 517.21875 C -743.15625 571.464844 -660.511719 656.601562 -569.636719 656.550781 C -552.96875 656.550781 -536.050781 653.707031 -518.984375 647.269531 C -402.003906 603.203125 -256.582031 715.140625 -214.8125 750.472656 Z M -214.8125 750.472656 " fill-opacity="1" fill-rule="nonzero"/></g><g clip-path="url(#38d95da663)"><path fill="#ffffff" d="M 990.691406 617.675781 C 993.285156 616.726562 994.632812 613.882812 993.683594 611.289062 C 992.738281 608.691406 989.84375 607.34375 987.296875 608.292969 C 941.632812 624.910156 880.101562 687.792969 793.667969 806.214844 C 758.335938 854.625 698.046875 886.5625 628.230469 893.75 C 567.097656 900.039062 508.808594 885.617188 476.121094 856.121094 C 406.453125 793.191406 332.59375 768.789062 198.351562 854.273438 C 50.132812 948.644531 -74.828125 929.332031 -153.527344 896.542969 C -188.0625 882.121094 -220.300781 862.757812 -251.441406 844.042969 C -314.074219 806.417969 -373.210938 770.832031 -450.8125 770.832031 C -451.160156 770.832031 -451.5625 770.832031 -451.910156 770.832031 C -478.660156 770.933594 -497.125 779.566406 -506.90625 796.484375 C -534.703125 844.492188 -479.757812 942.109375 -477.363281 946.25 C -476.464844 947.847656 -474.765625 948.796875 -473.019531 948.796875 C -472.171875 948.796875 -471.324219 948.59375 -470.574219 948.144531 C -468.179688 946.800781 -467.332031 943.753906 -468.679688 941.359375 C -469.226562 940.410156 -523.175781 844.542969 -498.222656 801.527344 C -490.335938 787.902344 -474.71875 780.964844 -451.808594 780.863281 C -451.460938 780.863281 -451.113281 780.863281 -450.761719 780.863281 C -375.90625 780.863281 -317.914062 815.75 -256.53125 852.628906 C -225.042969 871.542969 -192.503906 891.105469 -157.273438 905.777344 C -76.375 939.511719 51.929688 959.375 203.789062 862.710938 C 333.144531 780.367188 401.363281 801.976562 469.535156 863.558594 C 504.269531 894.898438 565.5 910.320312 629.328125 903.730469 C 701.941406 896.246094 764.773438 862.859375 801.800781 812.15625 C 886.9375 695.378906 946.972656 633.59375 990.691406 617.675781 Z M 990.691406 617.675781 " fill-opacity="1" fill-rule="nonzero"/></g><g clip-path="url(#c6dd8af304)"><path fill="#ffffff" d="M -5.113281 -626.402344 C -5.261719 -610.832031 -5.359375 -599.554688 -4.863281 -593.367188 C -4.113281 -583.984375 -5.261719 -575.203125 -6.359375 -566.71875 C -9.851562 -539.71875 -13.445312 -511.773438 41.800781 -466.609375 C 47.789062 -461.667969 53.824219 -456.878906 59.816406 -452.085938 C 124.589844 -400.183594 180.484375 -355.421875 163.367188 -245.429688 C 148.347656 -149.0625 214.917969 -106.09375 299.160156 -51.699219 C 326.40625 -34.082031 354.652344 -15.867188 383.046875 5.941406 C 477.917969 78.753906 459.203125 195.378906 445.53125 280.566406 C 442.785156 297.785156 440.140625 314.054688 438.792969 328.226562 C 434.402344 373.941406 449.472656 398.441406 461.550781 418.105469 C 472.078125 435.222656 480.414062 448.746094 474.175781 471.554688 C 471.179688 482.484375 462.597656 499.152344 452.664062 518.464844 C 416.234375 589.230469 355.25 707.703125 463.84375 763.996094 C 490.445312 777.769531 516.742188 783.660156 542.34375 783.660156 C 636.066406 783.660156 721.054688 705.257812 781.6875 649.316406 C 789.523438 642.078125 797.011719 635.191406 804.144531 628.753906 C 881.550781 559.238281 990.789062 477.691406 991.886719 476.894531 C 994.085938 475.246094 994.535156 472.101562 992.886719 469.90625 C 991.238281 467.710938 988.097656 467.210938 985.898438 468.910156 C 984.800781 469.707031 875.160156 551.550781 797.460938 621.320312 C 790.324219 627.757812 782.785156 634.691406 774.902344 641.980469 C 695.203125 715.488281 586.0625 816.148438 468.386719 755.164062 C 368.574219 703.460938 424.46875 594.917969 461.449219 523.054688 C 471.628906 503.242188 480.460938 486.125 483.707031 474.25 C 491.042969 447.300781 480.8125 430.582031 469.933594 412.964844 C 458.003906 393.601562 444.53125 371.695312 448.625 329.273438 C 449.972656 315.453125 452.566406 299.332031 455.3125 282.214844 C 469.382812 194.582031 488.695312 74.511719 389.035156 -1.894531 C 360.292969 -23.953125 331.945312 -42.265625 304.5 -59.984375 C 223.253906 -112.433594 159.125 -153.855469 173.148438 -243.78125 C 191.164062 -359.460938 130.378906 -408.171875 66.003906 -459.773438 C 60.0625 -464.5625 54.074219 -469.351562 48.085938 -474.242188 C -2.867188 -515.914062 0.128906 -538.820312 3.523438 -565.371094 C 4.667969 -574.402344 5.867188 -583.734375 5.070312 -594.117188 C 4.621094 -599.90625 4.71875 -610.984375 4.820312 -626.304688 C 5.566406 -710.195312 7.464844 -933.019531 -88.652344 -1078.542969 C -156.273438 -1180.949219 -121.242188 -1272.273438 -87.40625 -1360.554688 C -65.945312 -1416.5 -45.683594 -1469.347656 -52.621094 -1522.148438 C -52.972656 -1524.890625 -55.464844 -1526.789062 -58.210938 -1526.4375 C -60.957031 -1526.089844 -62.851562 -1523.59375 -62.503906 -1520.851562 C -55.914062 -1470.597656 -75.726562 -1418.894531 -96.6875 -1364.148438 C -129.824219 -1277.714844 -167.402344 -1179.699219 -96.9375 -1073.054688 C -2.515625 -930.027344 -4.414062 -709.445312 -5.113281 -626.402344 Z M -5.113281 -626.402344 " fill-opacity="1" fill-rule="nonzero"/></g><g clip-path="url(#fdf3bc91a5)"><path fill="#ffffff" d="M 133.875 -982.773438 C 249.402344 -964.011719 269.664062 -943 314.128906 -897.039062 C 318.320312 -892.695312 322.765625 -888.105469 327.453125 -883.316406 C 341.179688 -869.339844 360.640625 -854.070312 381.253906 -837.902344 C 443.335938 -789.195312 520.636719 -728.558594 497.230469 -659.390625 C 488.449219 -633.492188 464.34375 -600.402344 436.398438 -562.078125 C 362.386719 -460.621094 261.082031 -321.632812 340.128906 -171.820312 C 388.089844 -80.894531 436.945312 -53.996094 476.121094 -32.4375 C 524.429688 -5.835938 559.363281 13.378906 563.753906 143.128906 C 568.445312 281.714844 599.4375 373.890625 655.929688 417.109375 C 681.378906 436.570312 712.121094 446.300781 747.855469 446.300781 C 765.320312 446.300781 783.933594 443.957031 803.699219 439.316406 C 932.703125 408.875 989.492188 327.277344 972.476562 196.777344 C 959.300781 95.820312 966.886719 13.527344 993.335938 -28.941406 C 994.785156 -31.289062 994.085938 -34.382812 991.738281 -35.828125 C 989.394531 -37.277344 986.300781 -36.578125 984.851562 -34.230469 C 957.253906 10.183594 949.121094 94.820312 962.59375 198.074219 C 978.8125 322.636719 924.617188 400.539062 801.453125 429.582031 C 744.308594 443.058594 697.398438 436.171875 662.066406 409.171875 C 608.070312 367.902344 578.375 278.273438 573.785156 142.832031 C 569.195312 7.386719 532.214844 -12.972656 481.011719 -41.121094 C 442.933594 -62.078125 395.574219 -88.128906 349.011719 -176.410156 C 272.910156 -320.6875 372.121094 -456.777344 444.53125 -556.136719 C 472.976562 -595.113281 497.53125 -628.800781 506.761719 -656.148438 C 532.464844 -732.003906 452.066406 -795.082031 387.492188 -845.738281 C 367.179688 -861.707031 347.964844 -876.777344 334.691406 -890.25 C 330 -895.042969 325.609375 -899.582031 321.417969 -903.925781 C 276.800781 -950.085938 254.394531 -973.292969 135.570312 -992.605469 C 74.238281 -1002.585938 17.34375 -1058.980469 -6.011719 -1132.988281 C -30.261719 -1209.84375 -13.296875 -1284 40.550781 -1336.453125 C 167.109375 -1459.765625 124.941406 -1521.796875 123.042969 -1524.394531 C 121.445312 -1526.640625 118.351562 -1527.136719 116.105469 -1525.542969 C 113.863281 -1523.945312 113.363281 -1520.851562 114.910156 -1518.605469 C 115.007812 -1518.453125 124.640625 -1504.230469 119.75 -1475.984375 C 115.160156 -1449.386719 96.445312 -1404.820312 33.566406 -1343.585938 C -22.230469 -1289.191406 -40.59375 -1209.34375 -15.542969 -1129.996094 C 8.8125 -1052.492188 68.898438 -993.355469 133.875 -982.773438 Z M 133.875 -982.773438 " fill-opacity="1" fill-rule="nonzero"/></g><g clip-path="url(#87f5b14b36)"><path fill="#ffffff" d="M 100.6875 -1155.296875 C 111.964844 -1120.363281 137.914062 -1095.761719 177.890625 -1082.285156 C 275.402344 -1049.347656 335.488281 -977.984375 375.265625 -930.773438 C 383.347656 -921.140625 390.335938 -912.859375 396.824219 -905.871094 C 409.996094 -891.597656 439.242188 -877.226562 473.175781 -860.609375 C 540.148438 -827.71875 631.824219 -782.707031 645.398438 -712.539062 C 661.917969 -627.101562 562.308594 -518.507812 496.382812 -446.695312 C 481.460938 -430.425781 468.535156 -416.355469 459.054688 -404.777344 C 428.910156 -368.046875 417.035156 -318.390625 428.0625 -275.222656 C 435.847656 -244.78125 458.457031 -203.109375 521.882812 -177.558594 C 629.480469 -134.242188 629.480469 -134.242188 629.28125 59.589844 L 629.28125 85.238281 C 629.28125 189.390625 648.542969 258.710938 688.167969 297.136719 C 722.703125 330.621094 768.515625 337.109375 811.132812 337.109375 C 816.324219 337.109375 821.511719 337.011719 826.554688 336.859375 C 841.972656 336.363281 854.800781 330.472656 864.679688 319.292969 C 901.609375 277.425781 891.082031 166.785156 881.796875 69.171875 C 877.457031 23.40625 873.316406 -19.808594 874.660156 -50.652344 C 879.304688 -158.445312 990.042969 -215.585938 991.191406 -216.1875 C 993.636719 -217.433594 994.632812 -220.425781 993.386719 -222.871094 C 992.136719 -225.316406 989.144531 -226.316406 986.699219 -225.070312 C 985.550781 -224.46875 869.570312 -164.785156 864.730469 -51.050781 C 863.382812 -19.558594 867.527344 24.007812 871.917969 70.117188 C 881 165.738281 891.332031 274.082031 857.246094 312.707031 C 849.160156 321.890625 839.03125 326.53125 826.304688 326.878906 C 781.738281 328.277344 731.183594 324.933594 695.152344 290 C 657.574219 253.519531 639.261719 186.546875 639.261719 85.238281 L 639.261719 59.589844 C 639.460938 -137.234375 639.460938 -140.980469 525.625 -186.839844 C 466.039062 -210.847656 444.929688 -249.523438 437.746094 -277.71875 C 427.464844 -317.84375 438.59375 -364.105469 466.789062 -398.4375 C 476.121094 -409.816406 488.945312 -423.789062 503.769531 -439.960938 C 571.039062 -513.269531 672.695312 -624.058594 655.179688 -714.4375 C 640.65625 -789.492188 546.386719 -835.753906 477.519531 -869.542969 C 444.480469 -885.761719 415.984375 -899.734375 404.109375 -912.609375 C 397.820312 -919.445312 390.882812 -927.679688 382.847656 -937.164062 C 342.375 -985.222656 281.191406 -1057.882812 181.035156 -1091.71875 C 144.203125 -1104.144531 120.347656 -1126.550781 110.117188 -1158.339844 C 90.304688 -1219.824219 125.089844 -1300.121094 164.265625 -1354.714844 C 233.984375 -1452.03125 204.488281 -1520.652344 203.191406 -1523.496094 C 202.042969 -1525.992188 199.097656 -1527.136719 196.605469 -1525.992188 C 194.109375 -1524.890625 192.960938 -1521.898438 194.058594 -1519.402344 C 194.359375 -1518.753906 222.304688 -1452.828125 156.128906 -1360.503906 C 115.660156 -1303.964844 79.777344 -1220.324219 100.6875 -1155.296875 Z M 100.6875 -1155.296875 " fill-opacity="1" fill-rule="nonzero"/></g><path fill="#ffffff" d="M 684.074219 501.246094 C 659.570312 499.300781 640.90625 508.785156 619.296875 519.710938 C 608.96875 524.953125 598.339844 530.34375 585.5625 535.484375 C 558.363281 546.363281 526.925781 573.609375 519.4375 604.699219 C 515.046875 622.816406 519.4375 640.03125 532.113281 654.605469 C 547.335938 672.070312 561.058594 680.507812 575.382812 681.105469 C 575.929688 681.105469 576.480469 681.15625 577.027344 681.15625 C 598.140625 681.15625 617.953125 663.738281 639.710938 642.726562 C 672.496094 611.089844 708.230469 539.523438 698.496094 512.425781 C 696.050781 505.738281 690.960938 501.796875 684.074219 501.246094 Z M 632.722656 635.492188 C 608.269531 659.097656 591.902344 671.671875 575.78125 671.074219 C 564.402344 670.574219 552.925781 663.238281 539.601562 647.96875 C 529.019531 635.792969 525.476562 622.015625 529.070312 606.996094 C 535.707031 579.5 565.003906 554.394531 589.207031 544.714844 C 602.382812 539.425781 613.757812 533.6875 623.789062 528.59375 C 643.054688 518.8125 658.625 510.929688 677.636719 510.929688 C 679.484375 510.929688 681.332031 510.980469 683.277344 511.128906 C 686.269531 511.378906 688.019531 512.726562 689.066406 515.71875 C 696.550781 536.628906 664.414062 604.898438 632.722656 635.492188 Z M 632.722656 635.492188 " fill-opacity="1" fill-rule="nonzero"/><g clip-path="url(#b10003a8e0)"><path fill="#ffffff" d="M -122.089844 228.867188 C -71.835938 245.632812 -29.714844 273.878906 -12.199219 302.675781 C -2.816406 318.046875 17.394531 327.480469 40.851562 327.480469 C 41.398438 327.480469 42 327.480469 42.546875 327.480469 C 66.253906 327.03125 86.164062 317.449219 94.449219 302.527344 C 112.113281 270.785156 89.65625 203.414062 50.78125 171.476562 C 16.296875 143.128906 -13.347656 142.980469 -79.519531 156.652344 C -125.132812 166.085938 -151.933594 181.855469 -152.980469 199.820312 C -153.429688 208.207031 -148.4375 220.082031 -122.089844 228.867188 Z M -77.421875 166.433594 C -49.976562 160.746094 -29.714844 158 -13.644531 158 C 12.554688 158 27.625 165.289062 44.492188 179.210938 C 75.933594 205.0625 102.085938 268.339844 85.765625 297.683594 C 79.277344 309.3125 62.261719 317.097656 42.398438 317.496094 C 21.835938 317.945312 4.121094 310.261719 -3.664062 297.535156 C -22.328125 266.84375 -66.496094 236.902344 -118.894531 219.433594 C -134.566406 214.195312 -143.347656 207.308594 -142.949219 200.472656 C -142.351562 190.089844 -121.839844 175.617188 -77.421875 166.433594 Z M -77.421875 166.433594 " fill-opacity="1" fill-rule="nonzero"/></g><g clip-path="url(#7b9c125ea2)"><path fill="#ffffff" d="M -1473.265625 363.011719 C -1432.191406 331.769531 -1301.589844 311.757812 -1240.40625 327.277344 L -1233.96875 328.925781 C -1176.230469 343.699219 -1141.398438 352.582031 -1013.839844 307.367188 C -930.597656 277.871094 -910.136719 290.597656 -860.679688 321.339844 C -833.433594 338.257812 -799.546875 359.316406 -743.453125 381.773438 C -658.515625 415.761719 -633.015625 470.90625 -612.554688 515.21875 C -594.9375 553.347656 -580.964844 583.390625 -535.601562 577.351562 C -449.464844 565.875 -381.445312 556.792969 -307.535156 606.746094 C -262.222656 637.339844 -163.558594 679.855469 -45.835938 679.855469 C -0.371094 679.855469 47.9375 673.519531 97.09375 657.699219 C 158.078125 638.085938 198.25 606.746094 216.367188 564.527344 C 240.917969 507.484375 218.011719 448.148438 207.035156 425.292969 C 187.769531 385.167969 186.871094 356.324219 183.878906 260.753906 C 183.230469 239.296875 182.429688 214.59375 181.332031 185.699219 C 179.9375 149.167969 167.308594 119.921875 143.855469 98.8125 C 84.816406 45.664062 -29.566406 53.351562 -113.105469 58.941406 C -125.683594 59.789062 -137.558594 60.585938 -148.238281 61.085938 C -254.636719 66.125 -359.039062 59.839844 -466.035156 -70.914062 C -521.726562 -138.984375 -574.175781 -166.828125 -612.503906 -187.140625 C -650.082031 -207.101562 -674.9375 -220.277344 -682.421875 -257.359375 C -699.488281 -342.097656 -758.976562 -384.714844 -808.980469 -396.34375 C -825.996094 -400.285156 -843.464844 -395.945312 -859.382812 -383.71875 C -887.082031 -362.558594 -908.242188 -318.640625 -909.6875 -279.265625 C -910.039062 -269.683594 -915.179688 -260.550781 -924.960938 -252.117188 C -963.585938 -218.78125 -1064.894531 -202.5625 -1165.851562 -213.589844 C -1291.0625 -227.265625 -1470.519531 -468.855469 -1472.316406 -471.300781 C -1473.964844 -473.496094 -1477.058594 -473.996094 -1479.304688 -472.347656 C -1481.5 -470.703125 -1482 -467.605469 -1480.351562 -465.363281 C -1472.914062 -455.28125 -1296.5 -217.832031 -1166.949219 -203.660156 C -1063.445312 -192.332031 -958.945312 -209.546875 -918.421875 -244.53125 C -906.445312 -254.863281 -900.15625 -266.441406 -899.707031 -278.867188 C -898.359375 -315.496094 -878.847656 -356.21875 -853.296875 -375.730469 C -839.570312 -386.210938 -825.398438 -389.855469 -811.175781 -386.5625 C -764.214844 -375.632812 -708.273438 -335.457031 -692.152344 -255.3125 C -683.71875 -213.542969 -655.773438 -198.71875 -617.144531 -178.207031 C -577.472656 -157.199219 -528.164062 -131 -473.71875 -64.476562 C -363.878906 69.769531 -252.492188 76.15625 -147.738281 71.167969 C -136.960938 70.667969 -125.035156 69.867188 -112.40625 69.019531 C -30.664062 63.53125 81.273438 56.046875 137.167969 106.347656 C 158.578125 125.613281 170.054688 152.460938 171.351562 186.199219 C 172.449219 215.042969 173.25 239.796875 173.898438 261.203125 C 176.839844 355.824219 177.839844 387.714844 198 429.734375 C 208.382812 451.34375 230.039062 507.386719 207.132812 560.683594 C 190.167969 600.109375 152.089844 629.601562 93.949219 648.316406 C -78.820312 703.910156 -240.613281 640.082031 -302.046875 598.613281 C -379.097656 546.5625 -448.765625 555.84375 -537 567.621094 C -575.125 572.710938 -586.453125 548.257812 -603.570312 511.179688 C -623.683594 467.660156 -651.230469 408.125 -739.8125 372.640625 C -795.105469 350.535156 -828.59375 329.722656 -855.492188 313.003906 C -906.296875 281.414062 -929.5 266.992188 -1017.285156 298.085938 C -1141.945312 342.25 -1173.785156 334.117188 -1231.625 319.34375 L -1238.0625 317.695312 C -1302.691406 301.277344 -1435.734375 321.9375 -1479.402344 355.175781 C -1481.597656 356.824219 -1482 359.964844 -1480.351562 362.164062 C -1478.605469 364.257812 -1475.460938 364.707031 -1473.265625 363.011719 Z M -1473.265625 363.011719 " fill-opacity="1" fill-rule="nonzero"/></g><g clip-path="url(#ec99478d0a)"><path fill="#ffffff" d="M -1475.011719 269.238281 C -1471.019531 268.140625 -1377.046875 242.390625 -1351.097656 215.542969 C -1324.699219 188.195312 -1283.925781 188.445312 -1241.957031 216.242188 C -1191.152344 249.875 -1097.230469 239.445312 -1039.339844 210.5 C -1029.109375 205.410156 -1018.832031 199.371094 -1007.949219 192.984375 C -959.941406 164.886719 -910.335938 135.84375 -873.90625 192.835938 C -830.488281 260.707031 -804.886719 266.746094 -748.792969 280.070312 C -741.957031 281.664062 -734.621094 283.414062 -726.738281 285.410156 C -717.054688 287.804688 -708.570312 289.800781 -701.035156 291.597656 C -651.929688 303.074219 -643.097656 305.171875 -600.527344 356.222656 C -552.417969 413.964844 -543.4375 415.960938 -433.394531 440.613281 L -408.542969 446.203125 C -336.679688 462.421875 -304.640625 486.925781 -270.753906 512.875 C -240.710938 535.882812 -209.671875 559.636719 -149.636719 581.144531 C -101.226562 598.511719 -58.0625 607.246094 -23.226562 607.246094 C 5.367188 607.246094 28.375 601.355469 44.195312 589.53125 C 60.214844 577.550781 67.949219 559.6875 66.652344 537.878906 C 62.710938 472.402344 -3.117188 420.402344 -115.402344 352.730469 C -155.773438 328.375 -169.699219 301.078125 -184.421875 272.234375 C -205.28125 231.3125 -226.839844 189.042969 -325.300781 156.753906 C -357.289062 146.273438 -384.238281 138.339844 -405.898438 131.949219 C -498.171875 104.753906 -517.386719 99.113281 -568.238281 8.335938 C -576.074219 -5.6875 -583.757812 -19.558594 -591.246094 -33.132812 C -647.039062 -134.390625 -691.15625 -214.390625 -744.753906 -223.621094 C -804.089844 -233.851562 -817.863281 -218.082031 -837.027344 -189.238281 C -853.046875 -165.183594 -932.445312 -149.5625 -974.214844 -157.148438 C -1000.765625 -161.988281 -1026.964844 -139.582031 -1052.214844 -117.972656 C -1071.828125 -101.203125 -1092.089844 -83.835938 -1110.707031 -81.144531 C -1153.871094 -74.855469 -1218.300781 -108.738281 -1267.308594 -163.636719 C -1292.410156 -191.78125 -1330.886719 -209.097656 -1368.066406 -225.917969 C -1406.941406 -243.484375 -1447.214844 -261.648438 -1472.414062 -292.039062 C -1474.164062 -294.136719 -1477.308594 -294.4375 -1479.453125 -292.691406 C -1481.546875 -290.941406 -1481.847656 -287.800781 -1480.101562 -285.652344 C -1453.402344 -253.515625 -1412.082031 -234.851562 -1372.15625 -216.835938 C -1334.230469 -199.71875 -1298.449219 -183.546875 -1274.742188 -157 C -1223.640625 -99.757812 -1155.621094 -64.472656 -1109.257812 -71.261719 C -1087.796875 -74.40625 -1066.390625 -92.71875 -1045.730469 -110.386719 C -1022.222656 -130.5 -997.871094 -151.308594 -976.011719 -147.367188 C -930.097656 -139.03125 -847.355469 -155.800781 -828.742188 -183.746094 C -812.273438 -208.5 -802.34375 -223.421875 -746.449219 -213.789062 C -697.59375 -205.355469 -652.378906 -123.3125 -600.027344 -28.34375 C -592.542969 -14.769531 -584.855469 -0.847656 -576.972656 13.226562 C -524.121094 107.597656 -501.964844 114.085938 -408.742188 141.582031 C -386.035156 148.269531 -360.285156 155.855469 -328.445312 166.285156 C -233.875 197.277344 -214.214844 235.902344 -193.351562 276.824219 C -178.628906 305.671875 -163.410156 335.511719 -120.589844 361.363281 C -13.894531 425.691406 52.976562 477.742188 56.671875 538.578125 C 57.769531 557.140625 51.582031 571.613281 38.207031 581.644531 C 6.367188 605.5 -62.601562 601.855469 -146.242188 571.863281 C -204.78125 550.851562 -235.222656 527.546875 -264.667969 505.039062 C -299.449219 478.390625 -332.339844 453.238281 -406.296875 436.570312 L -431.148438 430.980469 C -542.488281 406.027344 -546.828125 405.082031 -592.792969 349.9375 C -637.507812 296.289062 -649.234375 293.542969 -698.691406 281.964844 C -706.226562 280.21875 -714.660156 278.222656 -724.242188 275.828125 C -732.175781 273.832031 -739.5625 272.085938 -746.449219 270.488281 C -801.445312 257.460938 -824.199219 252.074219 -865.421875 187.59375 C -907.042969 122.519531 -963.285156 155.457031 -1012.941406 184.550781 C -1023.722656 190.839844 -1033.851562 196.777344 -1043.78125 201.769531 C -1099.425781 229.566406 -1190.105469 238.746094 -1236.414062 208.105469 C -1282.726562 177.464844 -1328.242188 177.714844 -1358.234375 208.804688 C -1382.238281 233.707031 -1476.609375 259.558594 -1477.554688 259.808594 C -1480.199219 260.507812 -1481.796875 263.25 -1481.050781 265.945312 C -1480.402344 268.390625 -1477.605469 269.988281 -1475.011719 269.238281 Z M -1475.011719 269.238281 " fill-opacity="1" fill-rule="nonzero"/></g></g></g></g></svg>