<svg xmlns="http://www.w3.org/2000/svg" xmlns:xlink="http://www.w3.org/1999/xlink" width="500" zoomAndPan="magnify" viewBox="0 0 375 374.999991" height="500" preserveAspectRatio="xMidYMid meet" version="1.0"><defs><clipPath id="5a043fae7b"><path d="M 187.5 0 C 83.945312 0 0 83.945312 0 187.5 C 0 291.054688 83.945312 375 187.5 375 C 291.054688 375 375 291.054688 375 187.5 C 375 83.945312 291.054688 0 187.5 0 Z M 187.5 0 " clip-rule="nonzero"/></clipPath><clipPath id="3807d2b877"><path d="M 89 89.492188 L 286.207031 89.492188 L 286.207031 285.242188 L 89 285.242188 Z M 89 89.492188 " clip-rule="nonzero"/></clipPath></defs><g clip-path="url(#5a043fae7b)"><rect x="-37.5" width="450" fill="#fff3c0" y="-37.499999" height="449.999989" fill-opacity="1"/></g><g clip-path="url(#3807d2b877)"><path fill="#000000" d="M 282.320312 173.835938 L 269.234375 173.835938 C 267.179688 161.390625 262.269531 149.566406 254.886719 139.289062 L 264.144531 130.050781 C 265.65625 128.546875 265.65625 126.101562 264.144531 124.597656 L 250.476562 110.953125 C 248.964844 109.449219 246.515625 109.449219 245.007812 110.953125 L 235.75 120.191406 C 225.453125 112.828125 213.601562 107.929688 201.128906 105.878906 L 201.128906 93.363281 C 201.128906 91.234375 199.398438 89.507812 197.265625 89.507812 C 176.777344 89.515625 177.914062 89.488281 177.542969 89.527344 C 124.316406 95.566406 88.960938 139.234375 89.011719 187.335938 C 89.066406 239.207031 128.710938 280.277344 177.527344 285.207031 C 177.921875 285.246094 176.777344 285.21875 197.265625 285.226562 C 199.398438 285.226562 201.132812 283.5 201.132812 281.371094 L 201.132812 268.796875 C 213.605469 266.746094 225.453125 261.847656 235.75 254.484375 L 245.007812 263.71875 C 246.515625 265.226562 248.964844 265.226562 250.476562 263.71875 L 264.148438 250.078125 C 265.65625 248.574219 265.65625 246.128906 264.144531 244.621094 L 254.890625 235.386719 C 262.269531 225.109375 267.179688 213.285156 269.234375 200.839844 L 282.320312 200.839844 C 284.457031 200.839844 286.1875 199.113281 286.1875 196.980469 L 286.1875 177.691406 C 286.1875 175.5625 284.457031 173.835938 282.320312 173.835938 Z M 177.933594 206.628906 C 175.796875 206.628906 174.066406 208.355469 174.066406 210.484375 L 174.066406 260.960938 C 156.804688 257.832031 141.738281 248.855469 130.84375 236.257812 L 133.703125 233.402344 C 135.214844 231.894531 135.214844 229.453125 133.703125 227.945312 C 132.195312 226.441406 129.746094 226.441406 128.238281 227.945312 L 126.0625 230.117188 C 118.246094 218.925781 113.433594 205.546875 112.695312 191.195312 L 116.078125 191.195312 C 118.210938 191.195312 119.941406 189.46875 119.941406 187.335938 C 119.941406 185.207031 118.210938 183.480469 116.078125 183.480469 L 112.695312 183.480469 C 113.523438 167.359375 119.496094 152.464844 129.085938 140.523438 L 131.226562 142.65625 C 132.734375 144.164062 135.183594 144.164062 136.691406 142.65625 C 138.203125 141.148438 138.203125 138.707031 136.691406 137.199219 L 134.238281 134.75 C 144.777344 124.082031 158.53125 116.53125 174.066406 113.714844 L 174.066406 164.191406 C 174.066406 166.320312 175.796875 168.046875 177.933594 168.046875 C 188.59375 168.046875 197.265625 176.703125 197.265625 187.335938 C 197.265625 197.972656 188.59375 206.628906 177.933594 206.628906 Z M 96.746094 187.367188 C 96.71875 143.082031 129.058594 104.46875 174.066406 97.738281 L 174.066406 105.882812 C 134.382812 112.386719 104.863281 146.816406 104.863281 187.335938 C 104.863281 227.992188 134.519531 262.308594 174.066406 268.792969 L 174.066406 276.976562 C 127.984375 269.71875 96.773438 230.851562 96.746094 187.367188 Z M 278.453125 193.125 L 265.882812 193.125 C 263.925781 193.125 262.28125 194.578125 262.042969 196.515625 C 260.402344 209.941406 255.109375 222.6875 246.742188 233.375 C 245.539062 234.910156 245.671875 237.101562 247.054688 238.480469 L 255.945312 247.351562 L 247.742188 255.535156 L 238.851562 246.664062 C 237.46875 245.285156 235.273438 245.152344 233.734375 246.351562 C 223.023438 254.703125 210.25 259.984375 196.796875 261.621094 C 194.855469 261.859375 193.398438 263.503906 193.398438 265.453125 L 193.398438 277.511719 L 181.800781 277.511719 L 181.800781 214.0625 C 194.898438 212.183594 204.996094 200.917969 204.996094 187.335938 C 204.996094 173.757812 194.898438 162.492188 181.800781 160.613281 C 181.800781 153.875 181.800781 105.011719 181.800781 97.222656 L 193.398438 97.222656 L 193.398438 109.222656 C 193.398438 111.171875 194.855469 112.816406 196.796875 113.054688 C 210.25 114.691406 223.023438 119.972656 233.734375 128.324219 C 235.273438 129.523438 237.46875 129.390625 238.851562 128.011719 L 247.742188 119.140625 L 255.945312 127.324219 L 247.054688 136.195312 C 245.671875 137.574219 245.539062 139.765625 246.742188 141.300781 C 255.109375 151.988281 260.402344 164.734375 262.042969 178.160156 C 262.28125 180.097656 263.925781 181.550781 265.882812 181.550781 L 278.453125 181.550781 Z M 278.453125 193.125 " fill-opacity="1" fill-rule="nonzero"/></g><path fill="#000000" d="M 177.933594 175.765625 C 172.894531 175.765625 168.597656 178.988281 167 183.480469 L 131.539062 183.480469 C 129.402344 183.480469 127.671875 185.207031 127.671875 187.335938 C 127.671875 189.46875 129.402344 191.195312 131.539062 191.195312 L 166.667969 191.195312 L 144.269531 213.542969 C 142.761719 215.050781 142.761719 217.492188 144.269531 219 C 145.78125 220.507812 148.226562 220.507812 149.738281 219 L 171.695312 197.089844 C 179.324219 201.964844 189.53125 196.515625 189.53125 187.335938 C 189.53125 180.957031 184.328125 175.765625 177.933594 175.765625 Z M 177.933594 191.195312 C 175.800781 191.195312 174.066406 189.464844 174.066406 187.335938 C 174.066406 185.210938 175.800781 183.480469 177.933594 183.480469 C 180.066406 183.480469 181.800781 185.210938 181.800781 187.335938 C 181.800781 189.464844 180.066406 191.195312 177.933594 191.195312 Z M 177.933594 191.195312 " fill-opacity="1" fill-rule="nonzero"/></svg>