<svg xmlns="http://www.w3.org/2000/svg" xmlns:xlink="http://www.w3.org/1999/xlink" width="500" zoomAndPan="magnify" viewBox="0 0 375 374.999991" height="500" preserveAspectRatio="xMidYMid meet" version="1.0"><defs><clipPath id="9a35851d79"><path d="M 187.5 0 C 83.945312 0 0 83.945312 0 187.5 C 0 291.054688 83.945312 375 187.5 375 C 291.054688 375 375 291.054688 375 187.5 C 375 83.945312 291.054688 0 187.5 0 Z M 187.5 0 " clip-rule="nonzero"/></clipPath><clipPath id="ca6e26db88"><path d="M 101.042969 104 L 273 104 L 273 271 L 101.042969 271 Z M 101.042969 104 " clip-rule="nonzero"/></clipPath></defs><g clip-path="url(#9a35851d79)"><rect x="-37.5" width="450" fill="#c6ebbf" y="-37.499999" height="449.999989" fill-opacity="1"/></g><g clip-path="url(#ca6e26db88)"><path fill="#000000" d="M 259.882812 160.578125 C 259.5 160.953125 259.246094 161.402344 259.117188 161.925781 C 258.988281 162.445312 259.007812 162.960938 259.171875 163.46875 C 261.714844 171.214844 262.980469 179.160156 262.972656 187.308594 C 262.972656 229.9375 227.929688 264.617188 184.847656 264.617188 C 141.769531 264.617188 106.730469 229.9375 106.730469 187.308594 C 106.730469 144.683594 141.78125 109.996094 184.859375 109.996094 C 188.695312 109.992188 192.511719 110.265625 196.304688 110.820312 C 200.097656 111.375 203.832031 112.207031 207.503906 113.308594 C 211.175781 114.410156 214.746094 115.777344 218.21875 117.40625 C 221.6875 119.03125 225.019531 120.902344 228.214844 123.019531 C 228.507812 123.21875 228.828125 123.359375 229.175781 123.4375 C 229.523438 123.519531 229.875 123.53125 230.226562 123.480469 C 230.582031 123.429688 230.914062 123.320312 231.222656 123.144531 C 231.535156 122.972656 231.804688 122.75 232.03125 122.476562 C 232.289062 122.164062 232.472656 121.8125 232.582031 121.421875 C 232.691406 121.027344 232.714844 120.632812 232.65625 120.230469 C 232.59375 119.832031 232.457031 119.460938 232.238281 119.117188 C 232.015625 118.777344 231.738281 118.492188 231.398438 118.269531 C 229.398438 116.953125 227.347656 115.722656 225.242188 114.578125 C 223.136719 113.433594 220.984375 112.378906 218.789062 111.421875 C 216.59375 110.460938 214.363281 109.59375 212.09375 108.820312 C 209.824219 108.050781 207.523438 107.378906 205.195312 106.800781 C 202.871094 106.226562 200.523438 105.75 198.152344 105.375 C 195.785156 105 193.40625 104.722656 191.015625 104.550781 C 188.621094 104.378906 186.226562 104.304688 183.832031 104.335938 C 181.433594 104.367188 179.039062 104.496094 176.65625 104.730469 C 174.269531 104.964844 171.894531 105.300781 169.539062 105.734375 C 167.179688 106.171875 164.84375 106.703125 162.535156 107.339844 C 160.222656 107.972656 157.941406 108.703125 155.691406 109.53125 C 153.441406 110.359375 151.230469 111.28125 149.0625 112.296875 C 146.890625 113.3125 144.769531 114.417969 142.691406 115.613281 C 140.617188 116.8125 138.597656 118.09375 136.628906 119.460938 C 134.664062 120.828125 132.761719 122.277344 130.917969 123.808594 C 129.078125 125.339844 127.304688 126.945312 125.601562 128.625 C 124.628906 129.582031 123.683594 130.5625 122.765625 131.566406 C 121.84375 132.570312 120.949219 133.597656 120.078125 134.644531 C 119.207031 135.691406 118.363281 136.761719 117.546875 137.847656 C 116.730469 138.9375 115.9375 140.046875 115.175781 141.175781 C 114.414062 142.304688 113.679688 143.449219 112.976562 144.613281 C 112.269531 145.777344 111.59375 146.957031 110.945312 148.15625 C 110.300781 149.351562 109.683594 150.566406 109.097656 151.792969 C 108.511719 153.023438 107.953125 154.261719 107.429688 155.519531 C 106.902344 156.773438 106.410156 158.039062 105.945312 159.320312 C 105.484375 160.601562 105.054688 161.890625 104.65625 163.191406 C 104.257812 164.492188 103.890625 165.800781 103.558594 167.121094 C 103.222656 168.4375 102.921875 169.765625 102.65625 171.097656 C 102.386719 172.429688 102.152344 173.769531 101.953125 175.117188 C 101.75 176.460938 101.582031 177.808594 101.449219 179.164062 C 101.3125 180.515625 101.210938 181.871094 101.144531 183.230469 C 101.078125 184.589844 101.042969 185.949219 101.042969 187.308594 C 101.042969 188.667969 101.078125 190.027344 101.144531 191.386719 C 101.210938 192.742188 101.3125 194.097656 101.449219 195.453125 C 101.582031 196.804688 101.75 198.15625 101.953125 199.5 C 102.152344 200.84375 102.386719 202.183594 102.65625 203.519531 C 102.921875 204.851562 103.222656 206.179688 103.558594 207.496094 C 103.890625 208.816406 104.257812 210.125 104.65625 211.425781 C 105.054688 212.726562 105.484375 214.015625 105.945312 215.296875 C 106.410156 216.574219 106.902344 217.84375 107.429688 219.097656 C 107.953125 220.351562 108.511719 221.59375 109.097656 222.824219 C 109.683594 224.050781 110.300781 225.261719 110.945312 226.460938 C 111.59375 227.65625 112.269531 228.839844 112.976562 230.003906 C 113.679688 231.167969 114.414062 232.3125 115.175781 233.441406 C 115.9375 234.570312 116.730469 235.679688 117.546875 236.765625 C 118.363281 237.855469 119.207031 238.925781 120.078125 239.972656 C 120.949219 241.019531 121.84375 242.046875 122.765625 243.050781 C 123.683594 244.054688 124.628906 245.035156 125.601562 245.992188 C 126.574219 246.949219 127.570312 247.886719 128.589844 248.800781 C 129.605469 249.710938 130.648438 250.597656 131.710938 251.460938 C 132.773438 252.320312 133.855469 253.15625 134.957031 253.964844 C 136.0625 254.773438 137.183594 255.554688 138.328125 256.3125 C 139.46875 257.066406 140.628906 257.792969 141.804688 258.488281 C 142.980469 259.1875 144.175781 259.855469 145.386719 260.496094 C 146.59375 261.136719 147.820312 261.746094 149.058594 262.328125 C 150.300781 262.90625 151.554688 263.457031 152.820312 263.976562 C 154.085938 264.496094 155.363281 264.984375 156.65625 265.441406 C 157.945312 265.898438 159.246094 266.324219 160.558594 266.71875 C 161.871094 267.113281 163.191406 267.472656 164.519531 267.804688 C 165.847656 268.132812 167.1875 268.429688 168.53125 268.695312 C 169.875 268.960938 171.222656 269.191406 172.578125 269.390625 C 173.933594 269.589844 175.292969 269.753906 176.65625 269.886719 C 178.019531 270.023438 179.382812 270.121094 180.753906 270.1875 C 182.121094 270.253906 183.488281 270.289062 184.859375 270.289062 C 186.230469 270.289062 187.597656 270.253906 188.964844 270.1875 C 190.335938 270.121094 191.699219 270.023438 193.0625 269.886719 C 194.425781 269.753906 195.785156 269.589844 197.140625 269.390625 C 198.496094 269.191406 199.847656 268.960938 201.191406 268.695312 C 202.535156 268.429688 203.871094 268.132812 205.199219 267.804688 C 206.527344 267.472656 207.847656 267.113281 209.160156 266.71875 C 210.472656 266.324219 211.773438 265.898438 213.0625 265.441406 C 214.355469 264.984375 215.632812 264.496094 216.898438 263.976562 C 218.167969 263.457031 219.417969 262.90625 220.660156 262.328125 C 221.898438 261.746094 223.125 261.136719 224.335938 260.496094 C 225.542969 259.855469 226.738281 259.1875 227.914062 258.488281 C 229.09375 257.792969 230.25 257.066406 231.394531 256.3125 C 232.535156 255.554688 233.65625 254.773438 234.761719 253.964844 C 235.863281 253.15625 236.945312 252.320312 238.007812 251.460938 C 239.070312 250.597656 240.113281 249.710938 241.132812 248.800781 C 242.148438 247.886719 243.144531 246.949219 244.121094 245.992188 C 245.472656 244.648438 246.78125 243.265625 248.039062 241.835938 C 249.296875 240.40625 250.503906 238.933594 251.664062 237.421875 C 252.820312 235.910156 253.921875 234.359375 254.972656 232.769531 C 256.023438 231.179688 257.015625 229.558594 257.953125 227.902344 C 258.890625 226.246094 259.769531 224.558594 260.589844 222.839844 C 261.410156 221.125 262.171875 219.382812 262.871094 217.613281 C 263.574219 215.84375 264.210938 214.050781 264.789062 212.238281 C 265.363281 210.425781 265.878906 208.59375 266.328125 206.746094 C 266.777344 204.898438 267.164062 203.035156 267.484375 201.160156 C 267.804688 199.285156 268.0625 197.402344 268.253906 195.511719 C 268.441406 193.617188 268.570312 191.722656 268.628906 189.820312 C 268.6875 187.917969 268.683594 186.019531 268.609375 184.117188 C 268.539062 182.214844 268.402344 180.320312 268.199219 178.429688 C 267.996094 176.539062 267.726562 174.65625 267.394531 172.785156 C 267.0625 170.910156 266.664062 169.050781 266.203125 167.207031 C 265.742188 165.359375 265.21875 163.53125 264.628906 161.722656 C 264.554688 161.492188 264.449219 161.273438 264.320312 161.066406 C 264.1875 160.859375 264.03125 160.675781 263.851562 160.507812 C 263.671875 160.34375 263.472656 160.203125 263.257812 160.085938 C 263.042969 159.972656 262.816406 159.886719 262.578125 159.828125 C 262.339844 159.769531 262.097656 159.746094 261.855469 159.75 C 261.609375 159.753906 261.367188 159.789062 261.132812 159.855469 C 260.898438 159.917969 260.671875 160.015625 260.460938 160.136719 C 260.25 160.257812 260.058594 160.40625 259.882812 160.578125 Z M 177.605469 222.148438 L 133.230469 181.25 C 132.972656 181.011719 132.742188 180.75 132.535156 180.46875 C 132.332031 180.1875 132.15625 179.886719 132.007812 179.570312 C 131.863281 179.253906 131.75 178.925781 131.667969 178.585938 C 131.585938 178.246094 131.539062 177.902344 131.523438 177.554688 C 131.511719 177.207031 131.53125 176.859375 131.585938 176.515625 C 131.640625 176.171875 131.730469 175.835938 131.851562 175.507812 C 131.972656 175.179688 132.125 174.867188 132.308594 174.570312 C 132.488281 174.273438 132.699219 173.996094 132.9375 173.742188 C 133.175781 173.484375 133.4375 173.253906 133.71875 173.050781 C 134.003906 172.84375 134.304688 172.667969 134.621094 172.523438 C 134.9375 172.378906 135.269531 172.261719 135.609375 172.183594 C 135.949219 172.101562 136.292969 172.054688 136.644531 172.039062 C 136.992188 172.027344 137.339844 172.046875 137.6875 172.101562 C 138.03125 172.15625 138.371094 172.242188 138.699219 172.363281 C 139.027344 172.484375 139.339844 172.636719 139.636719 172.816406 C 139.9375 173 140.214844 173.210938 140.472656 173.445312 L 176.523438 206.667969 C 176.789062 206.914062 177.078125 207.132812 177.390625 207.316406 C 177.703125 207.503906 178.03125 207.660156 178.375 207.78125 C 178.714844 207.898438 179.070312 207.984375 179.429688 208.03125 C 179.789062 208.082031 180.152344 208.09375 180.515625 208.066406 C 180.878906 208.042969 181.234375 207.980469 181.585938 207.882812 C 181.933594 207.785156 182.273438 207.652344 182.59375 207.484375 C 182.917969 207.320312 183.222656 207.121094 183.503906 206.894531 C 183.785156 206.664062 184.042969 206.410156 184.273438 206.128906 L 262.683594 110.449219 C 262.902344 110.179688 263.148438 109.933594 263.417969 109.710938 C 263.691406 109.488281 263.980469 109.296875 264.289062 109.132812 C 264.597656 108.964844 264.917969 108.832031 265.253906 108.730469 C 265.585938 108.628906 265.929688 108.558594 266.277344 108.523438 C 266.625 108.488281 266.972656 108.488281 267.324219 108.523438 C 267.671875 108.554688 268.015625 108.621094 268.347656 108.722656 C 268.683594 108.824219 269.007812 108.957031 269.316406 109.121094 C 269.625 109.285156 269.914062 109.476562 270.1875 109.695312 C 270.457031 109.917969 270.707031 110.160156 270.929688 110.429688 C 271.152344 110.699219 271.34375 110.988281 271.511719 111.296875 C 271.675781 111.605469 271.8125 111.925781 271.914062 112.257812 C 272.015625 112.589844 272.085938 112.933594 272.121094 113.28125 C 272.15625 113.625 272.15625 113.972656 272.121094 114.320312 C 272.089844 114.667969 272.023438 115.011719 271.921875 115.34375 C 271.820312 115.679688 271.6875 116 271.523438 116.308594 C 271.359375 116.617188 271.164062 116.90625 270.945312 117.175781 L 185.355469 221.597656 C 185.128906 221.878906 184.871094 222.132812 184.589844 222.363281 C 184.308594 222.59375 184.003906 222.789062 183.679688 222.957031 C 183.359375 223.125 183.023438 223.257812 182.671875 223.355469 C 182.320312 223.453125 181.964844 223.515625 181.601562 223.542969 C 181.238281 223.566406 180.875 223.554688 180.515625 223.507812 C 180.15625 223.460938 179.800781 223.375 179.460938 223.257812 C 179.117188 223.136719 178.789062 222.984375 178.476562 222.796875 C 178.164062 222.609375 177.875 222.394531 177.605469 222.148438 Z M 177.605469 222.148438 " fill-opacity="1" fill-rule="nonzero"/></g></svg>