<svg xmlns="http://www.w3.org/2000/svg" xmlns:xlink="http://www.w3.org/1999/xlink" width="500" zoomAndPan="magnify" viewBox="0 0 375 374.999991" height="500" preserveAspectRatio="xMidYMid meet" version="1.0"><defs><g/></defs><path fill="#c2d6ff" d="M 39.816406 341.671875 C 11.824219 312.765625 0.0820312 269.027344 9.796875 229.949219 C 19.511719 190.867188 50.371094 157.75 88.636719 145.3125 C 105.445312 139.851562 124.050781 137.847656 138.019531 127.015625 C 157.125 112.191406 161.867188 85.539062 175.652344 65.675781 C 191.59375 42.726562 220.785156 29.75 248.484375 33.328125 C 276.183594 36.902344 301.132812 56.851562 310.746094 83.105469 C 319.492188 107.035156 315.960938 133.933594 323.664062 158.210938 C 332.359375 185.71875 354.710938 207.375 363.074219 234.988281 C 374.960938 274.28125 352.132812 320.835938 313.804688 335.457031 " fill-opacity="1" fill-rule="nonzero"/><path fill="#ffffff" d="M 102.167969 140.792969 C 103.460938 138.207031 104.75 135.621094 106.046875 133.039062 C 103.019531 129.824219 100.792969 126.125 99.359375 121.945312 C 95.308594 109.988281 100.25 99.566406 101.429688 97.246094 C 102.699219 94.777344 104.25 92.503906 106.089844 90.429688 C 107.933594 88.355469 110 86.542969 112.300781 84.988281 C 114.945312 83.207031 120.886719 79.1875 129.273438 79.519531 C 131.8125 79.667969 134.28125 80.164062 136.675781 81.011719 C 139.074219 81.855469 141.304688 83.019531 143.375 84.496094 C 146.976562 87.050781 149.792969 90.289062 151.832031 94.207031 C 153.808594 94.355469 155.78125 94.300781 157.75 94.042969 C 159.71875 93.785156 161.640625 93.332031 163.515625 92.679688 C 165.390625 92.03125 167.179688 91.195312 168.882812 90.175781 C 170.585938 89.160156 172.167969 87.976562 173.632812 86.636719 C 173.945312 87.796875 175.695312 93.972656 181.789062 97.238281 C 187.390625 100.234375 194.457031 99.601562 199.953125 95.648438 C 198.40625 100.363281 199.824219 105.417969 203.324219 108.136719 C 207.75 111.566406 214.917969 110.792969 219.046875 105.714844 C 220.199219 105.59375 227.53125 104.925781 232.855469 110.144531 C 233.9375 111.183594 234.84375 112.359375 235.570312 113.671875 C 236.296875 114.984375 236.816406 116.371094 237.125 117.839844 C 237.671875 120.699219 237.421875 123.484375 236.363281 126.195312 C 234.046875 132.097656 228.675781 134.511719 227.285156 135.144531 C 219.792969 138.523438 212.648438 135.59375 211.308594 135.011719 C 210.644531 137.28125 209.734375 139.453125 208.585938 141.519531 C 207.703125 143.070312 206.703125 144.542969 205.578125 145.925781 L 205.578125 175.347656 C 204.105469 178.304688 202.089844 180.824219 199.527344 182.90625 C 197.976562 184.160156 192.203125 188.816406 184.226562 187.800781 C 181.855469 187.511719 179.625 186.796875 177.53125 185.648438 C 175.4375 184.5 173.632812 183.003906 172.117188 181.15625 C 170.28125 178.808594 169.101562 176.167969 168.582031 173.230469 L 168.582031 160.570312 C 164.964844 159.851562 161.585938 158.535156 158.4375 156.609375 C 156.117188 155.195312 154.027344 153.5 152.164062 151.523438 C 150.300781 149.546875 148.734375 147.355469 147.460938 144.957031 C 145.621094 141.339844 144.585938 137.503906 144.359375 133.453125 C 142.273438 135.441406 139.902344 136.992188 137.246094 138.109375 C 132.898438 139.910156 129.117188 139.910156 125.6875 139.910156 C 122.90625 139.90625 120.152344 139.640625 117.421875 139.101562 L 114.074219 145.417969 C 115.558594 146.851562 116.785156 148.476562 117.746094 150.300781 C 118.753906 152.222656 119.632812 153.890625 119.414062 156.101562 C 119.230469 157.699219 118.621094 159.117188 117.582031 160.34375 C 117.988281 160.914062 118.304688 161.53125 118.535156 162.191406 C 118.769531 162.851562 118.902344 163.53125 118.941406 164.230469 C 118.980469 164.929688 118.921875 165.621094 118.761719 166.300781 C 118.605469 166.984375 118.355469 167.628906 118.015625 168.242188 C 117.0625 170.054688 115.6875 171.445312 113.886719 172.417969 C 114.550781 173.851562 114.765625 175.347656 114.53125 176.90625 C 113.996094 180.089844 111.3125 182.753906 107.683594 183.789062 C 108.542969 184.917969 108.941406 186.195312 108.878906 187.613281 C 108.777344 188.480469 108.511719 189.292969 108.070312 190.050781 C 107.632812 190.808594 107.0625 191.445312 106.359375 191.960938 C 102.445312 195.226562 96.394531 192.898438 96.003906 192.746094 L 80.703125 258.179688 L 166.921875 258.179688 C 167.9375 258.1875 168.929688 258.339844 169.902344 258.636719 C 170.875 258.929688 171.785156 259.359375 172.632812 259.917969 C 173.480469 260.476562 174.230469 261.144531 174.886719 261.921875 C 175.539062 262.699219 176.070312 263.550781 176.480469 264.480469 L 191.085938 325.144531 C 197 323.808594 203.179688 322.59375 209.628906 321.519531 C 226.359375 318.789062 243.199219 317.414062 260.152344 317.390625 L 329.25 303.332031 C 331.371094 307.914062 333.460938 312.691406 335.519531 317.667969 C 339.234375 326.691406 342.402344 335.398438 345.109375 343.710938 L 58.191406 343.710938 C 56.335938 335.652344 54.476562 327.589844 52.617188 319.53125 C 50.285156 319.433594 48.039062 318.949219 45.871094 318.082031 C 38.503906 315.042969 35.171875 308.550781 33.917969 306.136719 C 30.519531 299.523438 30.589844 293.386719 30.722656 287.832031 C 30.851562 282.277344 31.792969 278.28125 33.28125 272.054688 C 37.453125 254.859375 39.539062 246.265625 40.734375 242.261719 C 41.460938 239.820312 44.769531 228.816406 50.480469 213.886719 C 55.632812 200.441406 60.246094 188.375 68.332031 173.636719 C 73.289062 164.632812 78.789062 155.980469 84.839844 147.675781 C 86.144531 145.910156 87.738281 144.460938 89.613281 143.324219 C 91.949219 141.984375 94.457031 141.1875 97.132812 140.929688 C 98.808594 140.707031 100.488281 140.660156 102.167969 140.792969 Z M 102.167969 140.792969 " fill-opacity="1" fill-rule="nonzero"/><path fill="#83cb75" d="M 93.207031 204.480469 C 91.960938 210.171875 90.621094 215.945312 89.1875 221.804688 C 86.09375 234.4375 82.75 246.554688 79.257812 258.152344 L 166.929688 258.152344 C 169.128906 258.183594 171.128906 258.828125 172.929688 260.085938 C 173.980469 260.847656 174.867188 261.765625 175.589844 262.84375 C 176.3125 263.917969 176.828125 265.085938 177.140625 266.347656 L 191.09375 325.085938 C 204.695312 322.046875 218.433594 319.871094 232.304688 318.558594 C 242.042969 317.632812 251.261719 317.191406 259.875 317.109375 C 269.601562 315.355469 279.445312 313.496094 289.402344 311.53125 C 306.152344 308.214844 322.515625 304.742188 338.496094 301.105469 C 335.675781 295.375 331.292969 286.601562 325.714844 275.953125 C 309.109375 244.320312 300.523438 228.171875 286.757812 211.820312 C 277.171875 200.425781 270.417969 192.035156 258.230469 184.304688 C 252.058594 180.378906 245.527344 177.191406 238.636719 174.742188 C 231.742188 172.292969 224.664062 170.648438 217.402344 169.800781 C 214.011719 169.449219 210.613281 169.292969 207.207031 169.328125 L 204.851562 170.054688 C 205.09375 171.808594 205.339844 173.566406 205.578125 175.320312 C 204.253906 178 202.464844 180.324219 200.214844 182.289062 C 198.65625 183.644531 193.40625 188.242188 185.617188 187.816406 C 184.167969 187.734375 177.09375 187.183594 172.117188 181.128906 C 170.949219 179.683594 170.015625 178.101562 169.316406 176.382812 C 168.617188 174.660156 168.179688 172.875 168.007812 171.027344 C 161.234375 172.308594 154.554688 173.980469 147.972656 176.042969 C 141.390625 178.109375 134.949219 180.546875 128.652344 183.363281 C 122.355469 186.179688 116.242188 189.355469 110.316406 192.886719 C 104.390625 196.417969 98.691406 200.28125 93.214844 204.480469 Z M 93.207031 204.480469 " fill-opacity="1" fill-rule="nonzero"/><path fill="#ffffff" d="M 157.785156 173.164062 C 157.714844 185.449219 165.921875 197.097656 177.691406 200.789062 C 180.703125 201.71875 183.785156 202.152344 186.941406 202.09375 C 190.09375 202.039062 193.160156 201.492188 196.136719 200.453125 C 199.035156 199.433594 201.691406 197.976562 204.113281 196.082031 C 206.53125 194.1875 208.582031 191.953125 210.265625 189.382812 C 212.160156 186.511719 213.507812 183.40625 214.304688 180.058594 C 215.101562 176.714844 215.300781 173.332031 214.902344 169.917969 C 214.714844 168.410156 212.324219 168.386719 212.519531 169.917969 C 213.929688 181.136719 207.859375 192.644531 197.511719 197.371094 C 194.855469 198.5625 192.078125 199.308594 189.179688 199.605469 C 186.28125 199.902344 183.410156 199.734375 180.566406 199.105469 C 177.792969 198.480469 175.195312 197.421875 172.773438 195.929688 C 170.347656 194.441406 168.234375 192.597656 166.421875 190.402344 C 164.402344 187.988281 162.859375 185.300781 161.785156 182.339844 C 160.710938 179.378906 160.175781 176.324219 160.175781 173.171875 C 160.175781 173.015625 160.148438 172.863281 160.085938 172.714844 C 160.027344 172.570312 159.9375 172.4375 159.828125 172.328125 C 159.714844 172.214844 159.585938 172.128906 159.4375 172.066406 C 159.292969 172.007812 159.140625 171.976562 158.980469 171.976562 C 158.824219 171.976562 158.671875 172.007812 158.523438 172.066406 C 158.378906 172.128906 158.25 172.214844 158.136719 172.328125 C 158.023438 172.4375 157.9375 172.570312 157.878906 172.714844 C 157.816406 172.863281 157.785156 173.015625 157.785156 173.171875 Z M 157.785156 173.164062 " fill-opacity="1" fill-rule="nonzero"/><path fill="#ffffff" d="M 251.578125 303.910156 L 311.90625 289.144531 L 328.917969 284.976562 C 330.410156 284.613281 329.78125 282.308594 328.28125 282.671875 L 267.996094 297.433594 L 250.984375 301.605469 C 249.492188 301.96875 250.121094 304.273438 251.617188 303.910156 Z M 251.578125 303.910156 " fill-opacity="1" fill-rule="nonzero"/><path fill="#fad745" d="M 115.796875 93.316406 C 114.140625 94.40625 112.675781 95.714844 111.410156 97.246094 C 110.144531 98.773438 109.132812 100.457031 108.371094 102.292969 C 107.441406 104.65625 106.976562 107.105469 106.976562 109.644531 C 106.976562 112.183594 107.441406 114.636719 108.371094 117 C 109.015625 118.636719 111.429688 124.511719 117.792969 127.507812 C 126.710938 131.707031 135.433594 126.449219 136.527344 125.757812 C 137.910156 124.898438 145.171875 120.132812 146.15625 111.003906 C 146.273438 109.804688 146.996094 102.566406 141.746094 96.554688 C 140.390625 95.019531 138.828125 93.730469 137.058594 92.695312 C 135.289062 91.664062 133.402344 90.933594 131.398438 90.507812 C 123.5 88.714844 117.203125 92.4375 115.796875 93.316406 Z M 115.796875 93.316406 " fill-opacity="1" fill-rule="nonzero"/><path fill="#000f66" d="M 144.519531 84.175781 C 142.222656 78.703125 142.425781 71.988281 146.410156 67.316406 C 147.21875 66.402344 148.113281 65.582031 149.09375 64.855469 C 150.078125 64.132812 151.125 63.519531 152.238281 63.019531 C 153.347656 62.519531 154.503906 62.144531 155.695312 61.890625 C 156.890625 61.636719 158.09375 61.511719 159.316406 61.515625 C 162.121094 61.488281 164.742188 62.179688 167.175781 63.582031 C 167.3125 63.660156 167.460938 63.710938 167.617188 63.734375 C 167.773438 63.757812 167.929688 63.746094 168.082031 63.707031 C 168.238281 63.667969 168.378906 63.597656 168.503906 63.503906 C 168.628906 63.40625 168.734375 63.289062 168.8125 63.152344 C 168.894531 63.015625 168.945312 62.871094 168.964844 62.710938 C 168.988281 62.554688 168.980469 62.398438 168.9375 62.246094 C 168.898438 62.09375 168.832031 61.953125 168.734375 61.824219 C 168.640625 61.699219 168.523438 61.59375 168.386719 61.515625 C 158.121094 55.539062 143.339844 61.375 141 73.3125 C 140.625 75.25 140.542969 77.199219 140.75 79.160156 C 140.957031 81.121094 141.445312 83.007812 142.214844 84.824219 C 142.3125 85.128906 142.503906 85.359375 142.78125 85.519531 C 143.058594 85.679688 143.351562 85.722656 143.664062 85.65625 C 143.816406 85.613281 143.953125 85.542969 144.074219 85.449219 C 144.199219 85.351562 144.300781 85.238281 144.375 85.101562 C 144.453125 84.964844 144.503906 84.820312 144.523438 84.664062 C 144.546875 84.511719 144.535156 84.355469 144.496094 84.207031 Z M 144.519531 84.175781 " fill-opacity="1" fill-rule="nonzero"/><path fill="#000f66" d="M 150.4375 93.894531 C 158.765625 97.957031 169.640625 95.113281 174.652344 87.246094 C 175.488281 85.9375 173.421875 84.742188 172.597656 86.035156 C 168.3125 92.75 158.773438 95.308594 151.640625 91.835938 C 150.265625 91.167969 149.054688 93.226562 150.4375 93.902344 Z M 150.4375 93.894531 " fill-opacity="1" fill-rule="nonzero"/><path fill="#000f66" d="M 171.878906 87.652344 C 172.027344 88.886719 172.308594 90.09375 172.71875 91.265625 C 173.132812 92.441406 173.667969 93.554688 174.328125 94.613281 C 174.984375 95.667969 175.75 96.640625 176.621094 97.527344 C 177.492188 98.417969 178.449219 99.199219 179.492188 99.878906 C 180.546875 100.539062 181.664062 101.074219 182.839844 101.480469 C 184.019531 101.882812 185.226562 102.148438 186.464844 102.277344 C 187.703125 102.402344 188.941406 102.382812 190.175781 102.222656 C 191.410156 102.0625 192.609375 101.765625 193.773438 101.328125 C 196.546875 100.332031 198.882812 98.707031 200.789062 96.460938 C 201.773438 95.292969 200.0625 93.5625 199.101562 94.773438 C 198.234375 95.847656 197.230469 96.773438 196.09375 97.550781 C 194.953125 98.328125 193.726562 98.925781 192.410156 99.339844 C 191.097656 99.753906 189.75 99.972656 188.371094 99.988281 C 186.992188 100.007812 185.640625 99.824219 184.3125 99.445312 C 182.988281 99.0625 181.746094 98.496094 180.589844 97.75 C 179.429688 97 178.402344 96.101562 177.511719 95.046875 C 176.617188 93.996094 175.894531 92.839844 175.34375 91.574219 C 174.789062 90.308594 174.433594 88.992188 174.269531 87.621094 C 174.089844 86.113281 171.699219 86.089844 171.878906 87.621094 Z M 171.878906 87.652344 " fill-opacity="1" fill-rule="nonzero"/><path fill="#000f66" d="M 198.28125 95.910156 C 197.726562 96.824219 197.292969 97.792969 196.976562 98.8125 C 196.660156 99.835938 196.472656 100.878906 196.410156 101.945312 C 196.351562 103.011719 196.421875 104.070312 196.621094 105.121094 C 196.820312 106.171875 197.144531 107.179688 197.59375 108.152344 C 198.054688 109.101562 198.625 109.980469 199.308594 110.785156 C 199.992188 111.589844 200.765625 112.296875 201.632812 112.902344 C 202.496094 113.507812 203.421875 113.996094 204.410156 114.367188 C 205.398438 114.734375 206.417969 114.976562 207.46875 115.085938 C 209.902344 115.378906 212.226562 115 214.4375 113.9375 C 215.824219 113.277344 214.613281 111.21875 213.230469 111.871094 C 212.730469 112.113281 212.21875 112.316406 211.6875 112.472656 C 211.15625 112.632812 210.617188 112.746094 210.070312 112.816406 C 209.519531 112.886719 208.972656 112.914062 208.417969 112.890625 C 207.867188 112.871094 207.316406 112.808594 206.777344 112.699219 C 206.234375 112.589844 205.703125 112.433594 205.1875 112.238281 C 204.667969 112.042969 204.171875 111.804688 203.691406 111.527344 C 203.214844 111.25 202.761719 110.933594 202.335938 110.582031 C 201.910156 110.230469 201.511719 109.847656 201.148438 109.429688 C 200.785156 109.011719 200.457031 108.570312 200.164062 108.097656 C 199.875 107.628906 199.621094 107.136719 199.410156 106.625 C 199.199219 106.113281 199.03125 105.589844 198.90625 105.050781 C 198.78125 104.511719 198.699219 103.964844 198.664062 103.414062 C 198.625 102.859375 198.632812 102.308594 198.6875 101.757812 C 198.742188 101.207031 198.839844 100.664062 198.984375 100.128906 C 199.125 99.59375 199.3125 99.074219 199.539062 98.570312 C 199.765625 98.066406 200.03125 97.582031 200.339844 97.121094 C 201.164062 95.808594 199.101562 94.613281 198.28125 95.910156 Z M 198.28125 95.910156 " fill-opacity="1" fill-rule="nonzero"/><path fill="#000f66" d="M 215.164062 113.03125 C 215.710938 112.253906 216.347656 111.550781 217.074219 110.933594 C 217.800781 110.316406 218.59375 109.796875 219.449219 109.378906 C 220.308594 108.960938 221.203125 108.65625 222.136719 108.464844 C 223.070312 108.277344 224.015625 108.203125 224.964844 108.253906 C 225.953125 108.308594 226.914062 108.484375 227.855469 108.785156 C 228.792969 109.085938 229.679688 109.503906 230.511719 110.03125 C 231.347656 110.558594 232.101562 111.1875 232.773438 111.90625 C 233.445312 112.628906 234.019531 113.425781 234.488281 114.292969 C 234.992188 115.171875 235.390625 116.097656 235.679688 117.070312 C 235.972656 118.042969 236.144531 119.035156 236.207031 120.046875 C 236.265625 121.0625 236.207031 122.066406 236.03125 123.066406 C 235.855469 124.066406 235.566406 125.03125 235.167969 125.960938 C 234.332031 127.886719 233.148438 129.5625 231.617188 130.996094 C 230.085938 132.429688 228.335938 133.5 226.363281 134.207031 C 225.117188 134.617188 223.839844 134.886719 222.535156 135.015625 C 221.230469 135.144531 219.925781 135.125 218.621094 134.960938 C 217.320312 134.800781 216.050781 134.496094 214.816406 134.054688 C 213.582031 133.609375 212.410156 133.035156 211.300781 132.328125 C 209.988281 131.523438 208.789062 133.59375 210.097656 134.398438 C 211.230469 135.105469 212.425781 135.699219 213.675781 136.171875 C 214.925781 136.644531 216.207031 136.992188 217.527344 137.214844 C 218.84375 137.433594 220.171875 137.523438 221.507812 137.484375 C 222.84375 137.441406 224.164062 137.273438 225.464844 136.972656 C 226.65625 136.671875 227.804688 136.253906 228.910156 135.714844 C 230.011719 135.175781 231.050781 134.527344 232.019531 133.773438 C 232.988281 133.019531 233.867188 132.171875 234.660156 131.234375 C 235.457031 130.296875 236.144531 129.285156 236.726562 128.203125 C 237.300781 127.132812 237.746094 126.015625 238.058594 124.839844 C 238.375 123.667969 238.546875 122.472656 238.582031 121.261719 C 238.617188 120.046875 238.511719 118.84375 238.269531 117.65625 C 238.023438 116.46875 237.644531 115.324219 237.132812 114.222656 C 236.65625 113.144531 236.054688 112.144531 235.328125 111.21875 C 234.601562 110.292969 233.773438 109.472656 232.839844 108.75 C 231.910156 108.03125 230.90625 107.4375 229.824219 106.96875 C 228.746094 106.5 227.628906 106.171875 226.464844 105.984375 C 225.191406 105.796875 223.917969 105.785156 222.640625 105.953125 C 221.363281 106.121094 220.136719 106.460938 218.957031 106.976562 C 217.773438 107.488281 216.6875 108.152344 215.691406 108.96875 C 214.695312 109.789062 213.832031 110.726562 213.097656 111.785156 C 212.25 113.070312 214.316406 114.273438 215.164062 112.988281 Z M 215.164062 113.03125 " fill-opacity="1" fill-rule="nonzero"/><path fill="#000f66" d="M 218.140625 124.65625 C 218.140625 124.800781 218.175781 124.453125 218.183594 124.425781 L 218.273438 124.019531 C 218.34375 123.757812 218.421875 123.488281 218.511719 123.230469 C 218.679688 122.765625 218.894531 122.320312 219.15625 121.902344 C 219.691406 121.011719 220.367188 120.242188 221.175781 119.59375 C 221.960938 118.949219 222.839844 118.46875 223.804688 118.15625 C 224.773438 117.839844 225.761719 117.714844 226.777344 117.773438 C 226.9375 117.773438 227.089844 117.746094 227.234375 117.683594 C 227.382812 117.625 227.511719 117.535156 227.625 117.425781 C 227.734375 117.3125 227.820312 117.183594 227.882812 117.035156 C 227.941406 116.890625 227.972656 116.738281 227.972656 116.578125 C 227.972656 116.421875 227.941406 116.265625 227.882812 116.121094 C 227.820312 115.972656 227.734375 115.84375 227.625 115.734375 C 227.511719 115.621094 227.382812 115.535156 227.234375 115.472656 C 227.089844 115.414062 226.9375 115.382812 226.777344 115.382812 C 226.117188 115.359375 225.464844 115.398438 224.8125 115.496094 C 224.160156 115.597656 223.523438 115.753906 222.898438 115.96875 C 222.277344 116.183594 221.679688 116.457031 221.105469 116.78125 C 220.53125 117.105469 219.992188 117.480469 219.488281 117.90625 C 218.984375 118.332031 218.523438 118.796875 218.105469 119.304688 C 217.683594 119.816406 217.316406 120.359375 216.996094 120.9375 C 216.675781 121.511719 216.410156 122.113281 216.203125 122.738281 C 215.992188 123.363281 215.84375 124.003906 215.75 124.65625 C 215.664062 125.296875 216.359375 125.855469 216.945312 125.855469 C 217.101562 125.851562 217.253906 125.816406 217.398438 125.753906 C 217.542969 125.695312 217.671875 125.605469 217.78125 125.496094 C 217.894531 125.382812 217.980469 125.253906 218.042969 125.109375 C 218.105469 124.964844 218.136719 124.816406 218.140625 124.65625 Z M 218.140625 124.65625 " fill-opacity="1" fill-rule="nonzero"/><path fill="#000f66" d="M 143.113281 133.453125 C 143.554688 145.296875 151.707031 155.761719 162.617188 159.980469 C 174.421875 164.550781 188.027344 161.894531 198.058594 154.464844 C 203.5625 150.335938 207.976562 145.257812 211.308594 139.234375 C 212.035156 137.886719 209.996094 136.679688 209.242188 138.023438 C 203.757812 147.828125 194.753906 155.914062 183.71875 158.71875 C 172.445312 161.621094 159.921875 158.71875 152.148438 149.785156 C 150.148438 147.515625 148.578125 144.976562 147.4375 142.171875 C 146.300781 139.363281 145.65625 136.449219 145.503906 133.425781 C 145.445312 131.886719 143.054688 131.878906 143.113281 133.425781 Z M 143.113281 133.453125 " fill-opacity="1" fill-rule="nonzero"/><path fill="#000f66" d="M 204.359375 145.914062 L 204.359375 175.335938 C 204.359375 175.492188 204.390625 175.644531 204.453125 175.792969 C 204.511719 175.9375 204.597656 176.066406 204.710938 176.179688 C 204.824219 176.292969 204.953125 176.378906 205.097656 176.441406 C 205.246094 176.5 205.398438 176.53125 205.554688 176.53125 C 205.714844 176.53125 205.867188 176.5 206.011719 176.441406 C 206.160156 176.378906 206.289062 176.292969 206.402344 176.179688 C 206.511719 176.066406 206.597656 175.9375 206.660156 175.792969 C 206.722656 175.644531 206.75 175.492188 206.75 175.335938 L 206.75 145.914062 C 206.75 145.753906 206.722656 145.601562 206.660156 145.453125 C 206.597656 145.308594 206.511719 145.179688 206.402344 145.066406 C 206.289062 144.953125 206.160156 144.867188 206.011719 144.808594 C 205.867188 144.746094 205.714844 144.714844 205.554688 144.714844 C 205.398438 144.714844 205.246094 144.746094 205.097656 144.808594 C 204.953125 144.867188 204.824219 144.953125 204.710938 145.066406 C 204.597656 145.179688 204.511719 145.308594 204.453125 145.453125 C 204.390625 145.601562 204.359375 145.753906 204.359375 145.914062 Z M 204.359375 145.914062 " fill-opacity="1" fill-rule="nonzero"/><path fill="#000f66" d="M 204.527344 174.730469 C 201.070312 181.449219 194.449219 186.335938 186.777344 186.617188 C 181.941406 186.777344 177.355469 185.617188 174.109375 181.824219 C 171.453125 178.726562 170.089844 174.679688 169.15625 170.78125 C 168.792969 169.277344 166.488281 169.917969 166.851562 171.410156 C 168.464844 178.148438 171.652344 185.125 178.488281 187.816406 C 184.339844 190.128906 191.652344 189.207031 197.007812 186.101562 C 199.050781 184.898438 200.886719 183.433594 202.515625 181.707031 C 204.144531 179.980469 205.5 178.0625 206.585938 175.949219 C 207.308594 174.585938 205.230469 173.375 204.527344 174.746094 Z M 204.527344 174.730469 " fill-opacity="1" fill-rule="nonzero"/><path fill="#000f66" d="M 207.1875 170.527344 C 211.535156 170.492188 215.859375 170.773438 220.167969 171.359375 C 224.476562 171.945312 228.71875 172.839844 232.902344 174.035156 C 237.082031 175.230469 241.15625 176.714844 245.121094 178.496094 C 249.089844 180.273438 252.910156 182.328125 256.585938 184.652344 C 260.777344 187.304688 264.71875 190.289062 268.410156 193.609375 C 269.546875 194.640625 271.242188 192.949219 270.097656 191.917969 C 266.761719 188.929688 263.226562 186.199219 259.492188 183.71875 C 255.761719 181.238281 251.875 179.039062 247.824219 177.117188 C 243.777344 175.199219 239.613281 173.578125 235.335938 172.257812 C 231.054688 170.9375 226.703125 169.929688 222.277344 169.234375 C 217.277344 168.453125 212.246094 168.085938 207.1875 168.132812 C 205.648438 168.132812 205.648438 170.539062 207.1875 170.527344 Z M 207.1875 170.527344 " fill-opacity="1" fill-rule="nonzero"/><path fill="#000f66" d="M 285.707031 212.390625 C 293.394531 223.328125 300.617188 234.589844 307.484375 246.0625 C 314.488281 257.726562 321.132812 269.597656 327.410156 281.667969 C 330.867188 288.289062 334.222656 294.960938 337.472656 301.683594 C 338.148438 303.070312 340.207031 301.859375 339.539062 300.472656 C 333.710938 288.433594 327.558594 276.558594 321.085938 264.84375 C 314.496094 252.941406 307.554688 241.253906 300.261719 229.78125 C 296.238281 223.496094 292.085938 217.296875 287.804688 211.1875 C 286.921875 209.933594 284.851562 211.128906 285.742188 212.390625 Z M 285.707031 212.390625 " fill-opacity="1" fill-rule="nonzero"/><path fill="#000f66" d="M 226.277344 230.71875 C 228.09375 242.753906 230.871094 254.5625 234.605469 266.144531 C 238.34375 277.726562 242.992188 288.929688 248.550781 299.753906 C 251.695312 305.875 255.117188 311.84375 258.816406 317.660156 C 259.644531 318.953125 261.714844 317.753906 260.882812 316.449219 C 254.382812 306.25 248.753906 295.59375 244 284.472656 C 239.246094 273.347656 235.425781 261.914062 232.546875 250.167969 C 230.917969 243.539062 229.597656 236.84375 228.582031 230.078125 C 228.351562 228.5625 226.054688 229.207031 226.277344 230.71875 Z M 226.277344 230.71875 " fill-opacity="1" fill-rule="nonzero"/><path fill="#000f66" d="M 260.351562 318.886719 L 321.511719 305.898438 L 338.785156 302.230469 C 340.292969 301.910156 339.65625 299.601562 338.15625 299.921875 L 276.996094 312.910156 L 259.714844 316.582031 C 258.214844 316.898438 258.847656 319.207031 260.351562 318.886719 Z M 260.351562 318.886719 " fill-opacity="1" fill-rule="nonzero"/><path fill="#000f66" d="M 93.808594 205.507812 C 99.261719 201.320312 104.9375 197.464844 110.839844 193.941406 C 116.742188 190.421875 122.832031 187.253906 129.105469 184.445312 C 135.378906 181.636719 141.796875 179.207031 148.355469 177.148438 C 154.910156 175.09375 161.566406 173.425781 168.320312 172.152344 C 169.828125 171.859375 169.191406 169.5625 167.683594 169.84375 C 157.039062 171.863281 146.664062 174.828125 136.558594 178.738281 C 126.453125 182.648438 116.78125 187.4375 107.546875 193.109375 C 102.378906 196.289062 97.390625 199.726562 92.578125 203.421875 C 91.367188 204.34375 92.578125 206.421875 93.78125 205.480469 Z M 93.808594 205.507812 " fill-opacity="1" fill-rule="nonzero"/><path fill="#000f66" d="M 169.40625 62.40625 C 169.980469 60.777344 170.738281 59.242188 171.683594 57.796875 C 172.628906 56.351562 173.730469 55.042969 174.992188 53.863281 C 176.253906 52.6875 177.636719 51.679688 179.144531 50.835938 C 180.652344 49.996094 182.234375 49.347656 183.898438 48.890625 C 185.546875 48.460938 187.222656 48.246094 188.925781 48.242188 C 190.628906 48.238281 192.304688 48.445312 193.957031 48.863281 C 195.605469 49.28125 197.179688 49.898438 198.675781 50.714844 C 200.167969 51.527344 201.539062 52.515625 202.789062 53.675781 C 204.238281 54.972656 205.480469 56.445312 206.515625 58.09375 C 207.550781 59.742188 208.335938 61.5 208.875 63.371094 C 208.917969 63.523438 208.988281 63.65625 209.085938 63.78125 C 209.1875 63.902344 209.304688 64.003906 209.441406 64.078125 C 209.578125 64.15625 209.722656 64.203125 209.878906 64.21875 C 210.035156 64.238281 210.1875 64.226562 210.339844 64.1875 C 210.492188 64.144531 210.628906 64.074219 210.753906 63.980469 C 210.875 63.882812 210.976562 63.765625 211.054688 63.632812 C 211.132812 63.496094 211.183594 63.347656 211.207031 63.195312 C 211.226562 63.039062 211.21875 62.886719 211.179688 62.734375 C 210.636719 60.902344 209.882812 59.160156 208.921875 57.511719 C 207.960938 55.859375 206.820312 54.347656 205.496094 52.972656 C 204.171875 51.597656 202.703125 50.398438 201.09375 49.375 C 199.480469 48.351562 197.769531 47.535156 195.960938 46.921875 C 188.515625 44.398438 180.378906 46.320312 174.371094 51.273438 C 172.691406 52.652344 171.238281 54.234375 170.003906 56.023438 C 168.773438 57.8125 167.8125 59.738281 167.125 61.796875 C 166.640625 63.246094 168.953125 63.894531 169.429688 62.4375 Z M 169.40625 62.40625 " fill-opacity="1" fill-rule="nonzero"/><path fill="#000f66" d="M 210.664062 64.082031 C 215.734375 60.585938 222.792969 59.839844 228.609375 61.726562 C 230.078125 62.171875 231.429688 62.855469 232.660156 63.769531 C 233.894531 64.683594 234.9375 65.78125 235.792969 67.054688 C 236.699219 68.457031 237.390625 69.960938 237.863281 71.566406 C 238.332031 73.171875 238.566406 74.808594 238.558594 76.484375 C 238.578125 78.394531 238.277344 80.253906 237.65625 82.0625 C 237.035156 83.867188 236.128906 85.519531 234.9375 87.011719 C 233.964844 88.195312 235.660156 89.914062 236.625 88.703125 C 237.214844 87.957031 237.75 87.175781 238.230469 86.355469 C 238.707031 85.535156 239.125 84.683594 239.484375 83.804688 C 239.839844 82.921875 240.128906 82.019531 240.355469 81.097656 C 240.582031 80.175781 240.738281 79.238281 240.832031 78.292969 C 240.921875 77.347656 240.945312 76.398438 240.898438 75.449219 C 240.855469 74.5 240.742188 73.5625 240.558594 72.628906 C 240.378906 71.695312 240.128906 70.78125 239.816406 69.882812 C 239.503906 68.984375 239.128906 68.117188 238.6875 67.273438 C 235.195312 60.636719 227.902344 57.960938 220.707031 58.394531 C 218.699219 58.480469 216.738281 58.828125 214.828125 59.445312 C 212.914062 60.0625 211.117188 60.917969 209.4375 62.023438 C 208.1875 62.886719 209.375 64.921875 210.648438 64.082031 Z M 210.664062 64.082031 " fill-opacity="1" fill-rule="nonzero"/><path fill="#000f66" d="M 234.90625 88.613281 C 236.214844 89.195312 237.421875 89.933594 238.53125 90.835938 C 239.640625 91.738281 240.613281 92.765625 241.449219 93.925781 C 242.285156 95.085938 242.957031 96.332031 243.460938 97.671875 C 243.96875 99.007812 244.289062 100.386719 244.429688 101.8125 C 244.570312 103.234375 244.519531 104.648438 244.285156 106.058594 C 244.046875 107.46875 243.632812 108.824219 243.039062 110.125 C 242.441406 111.425781 241.6875 112.625 240.773438 113.722656 C 239.863281 114.824219 238.820312 115.785156 237.652344 116.609375 C 236.414062 117.492188 237.601562 119.566406 238.863281 118.675781 C 239.90625 117.933594 240.863281 117.097656 241.738281 116.160156 C 242.613281 115.226562 243.386719 114.214844 244.058594 113.125 C 244.726562 112.035156 245.28125 110.886719 245.722656 109.6875 C 246.160156 108.484375 246.476562 107.25 246.667969 105.984375 C 246.84375 104.730469 246.890625 103.46875 246.808594 102.207031 C 246.726562 100.941406 246.519531 99.699219 246.183594 98.476562 C 245.84375 97.257812 245.386719 96.082031 244.8125 94.953125 C 244.234375 93.828125 243.546875 92.769531 242.753906 91.785156 C 240.957031 89.515625 238.742188 87.773438 236.117188 86.554688 C 234.734375 85.910156 233.515625 88.007812 234.914062 88.613281 Z M 234.90625 88.613281 " fill-opacity="1" fill-rule="nonzero"/><path fill="#000f66" d="M 206.832031 154.816406 L 224.21875 137.363281 C 224.320312 137.25 224.398438 137.121094 224.453125 136.976562 C 224.503906 136.832031 224.527344 136.683594 224.523438 136.53125 C 224.519531 136.378906 224.488281 136.230469 224.429688 136.089844 C 224.367188 135.949219 224.285156 135.824219 224.175781 135.71875 C 224.066406 135.609375 223.941406 135.527344 223.800781 135.464844 C 223.660156 135.40625 223.515625 135.371094 223.363281 135.367188 C 223.210938 135.363281 223.0625 135.386719 222.917969 135.441406 C 222.773438 135.492188 222.644531 135.570312 222.53125 135.671875 L 205.144531 153.128906 C 205.039062 153.242188 204.964844 153.371094 204.910156 153.515625 C 204.859375 153.660156 204.832031 153.808594 204.835938 153.960938 C 204.84375 154.113281 204.875 154.257812 204.933594 154.398438 C 204.996094 154.539062 205.078125 154.664062 205.1875 154.773438 C 205.296875 154.882812 205.417969 154.964844 205.558594 155.027344 C 205.699219 155.085938 205.847656 155.121094 206 155.125 C 206.152344 155.128906 206.300781 155.101562 206.445312 155.050781 C 206.589844 154.996094 206.71875 154.921875 206.832031 154.816406 Z M 206.832031 154.816406 " fill-opacity="1" fill-rule="nonzero"/><path fill="#000f66" d="M 57.152344 332.96875 C 53.476562 316.53125 50.519531 299.933594 48.277344 283.179688 C 47.648438 278.46875 47.078125 273.757812 46.566406 269.042969 C 46.402344 267.527344 44.011719 267.511719 44.175781 269.042969 C 46.015625 285.964844 48.585938 302.777344 51.878906 319.480469 C 52.816406 324.199219 53.804688 328.910156 54.847656 333.609375 C 55.183594 335.109375 57.488281 334.472656 57.152344 332.96875 Z M 57.152344 332.96875 " fill-opacity="1" fill-rule="nonzero"/><path fill="#000f66" d="M 46.726562 269.042969 C 46.671875 268.488281 46.664062 267.9375 46.710938 267.382812 C 46.757812 266.828125 46.855469 266.28125 47.003906 265.746094 C 47.152344 265.210938 47.347656 264.691406 47.59375 264.191406 C 47.839844 263.691406 48.125 263.21875 48.460938 262.773438 C 48.792969 262.328125 49.164062 261.914062 49.570312 261.539062 C 49.980469 261.160156 50.421875 260.824219 50.890625 260.53125 C 51.363281 260.234375 51.859375 259.988281 52.375 259.785156 C 52.894531 259.582031 53.425781 259.429688 53.972656 259.324219 C 54.125 259.285156 54.261719 259.214844 54.382812 259.117188 C 54.507812 259.023438 54.605469 258.90625 54.683594 258.769531 C 54.761719 258.636719 54.8125 258.488281 54.832031 258.335938 C 54.855469 258.179688 54.84375 258.027344 54.804688 257.875 C 54.710938 257.566406 54.523438 257.332031 54.246094 257.171875 C 53.96875 257.007812 53.671875 256.964844 53.355469 257.035156 C 47.910156 257.941406 43.667969 263.5625 44.328125 269.058594 C 44.335938 269.21875 44.371094 269.367188 44.4375 269.511719 C 44.503906 269.65625 44.59375 269.785156 44.710938 269.894531 C 44.824219 270.003906 44.953125 270.089844 45.101562 270.148438 C 45.25 270.210938 45.402344 270.238281 45.5625 270.242188 C 45.71875 270.238281 45.871094 270.207031 46.015625 270.148438 C 46.164062 270.085938 46.292969 270 46.402344 269.886719 C 46.515625 269.777344 46.601562 269.648438 46.664062 269.5 C 46.722656 269.355469 46.753906 269.203125 46.757812 269.042969 Z M 46.726562 269.042969 " fill-opacity="1" fill-rule="nonzero"/><path fill="#000f66" d="M 53.675781 259.347656 L 166.910156 259.347656 C 167.066406 259.347656 167.21875 259.316406 167.363281 259.253906 C 167.511719 259.195312 167.640625 259.109375 167.75 258.996094 C 167.863281 258.882812 167.949219 258.753906 168.007812 258.609375 C 168.070312 258.460938 168.097656 258.308594 168.097656 258.152344 C 168.097656 257.992188 168.070312 257.839844 168.007812 257.695312 C 167.949219 257.546875 167.863281 257.417969 167.75 257.308594 C 167.640625 257.195312 167.511719 257.109375 167.363281 257.046875 C 167.21875 256.984375 167.066406 256.957031 166.910156 256.953125 L 53.675781 256.953125 C 53.519531 256.957031 53.367188 256.984375 53.21875 257.046875 C 53.074219 257.109375 52.945312 257.195312 52.832031 257.308594 C 52.722656 257.417969 52.636719 257.546875 52.574219 257.695312 C 52.515625 257.839844 52.484375 257.992188 52.484375 258.152344 C 52.484375 258.308594 52.515625 258.460938 52.574219 258.609375 C 52.636719 258.753906 52.722656 258.882812 52.832031 258.996094 C 52.945312 259.109375 53.074219 259.195312 53.21875 259.253906 C 53.367188 259.316406 53.519531 259.347656 53.675781 259.347656 Z M 53.675781 259.347656 " fill-opacity="1" fill-rule="nonzero"/><path fill="#000f66" d="M 166.878906 259.625 C 167.402344 259.59375 167.925781 259.609375 168.445312 259.671875 C 168.964844 259.734375 169.476562 259.84375 169.976562 260 C 170.480469 260.152344 170.960938 260.351562 171.425781 260.59375 C 171.890625 260.835938 172.332031 261.117188 172.746094 261.4375 C 173.164062 261.757812 173.546875 262.113281 173.894531 262.503906 C 174.246094 262.894531 174.5625 263.3125 174.835938 263.757812 C 175.113281 264.203125 175.347656 264.671875 175.539062 265.160156 C 175.730469 265.648438 175.878906 266.148438 175.980469 266.664062 C 176.023438 266.816406 176.09375 266.949219 176.191406 267.074219 C 176.285156 267.195312 176.402344 267.296875 176.539062 267.371094 C 176.671875 267.449219 176.816406 267.5 176.972656 267.523438 C 177.125 267.542969 177.277344 267.535156 177.429688 267.5 C 177.578125 267.453125 177.710938 267.382812 177.832031 267.285156 C 177.953125 267.1875 178.054688 267.074219 178.132812 266.9375 C 178.207031 266.804688 178.257812 266.660156 178.28125 266.507812 C 178.304688 266.351562 178.296875 266.199219 178.261719 266.046875 C 178.125 265.410156 177.933594 264.785156 177.6875 264.179688 C 177.441406 263.574219 177.144531 262.996094 176.796875 262.441406 C 176.449219 261.886719 176.054688 261.367188 175.613281 260.882812 C 175.175781 260.398438 174.695312 259.957031 174.179688 259.558594 C 173.660156 259.160156 173.113281 258.808594 172.535156 258.503906 C 171.953125 258.203125 171.355469 257.953125 170.730469 257.753906 C 170.105469 257.558594 169.472656 257.417969 168.824219 257.332031 C 168.175781 257.25 167.523438 257.222656 166.871094 257.253906 C 166.714844 257.257812 166.566406 257.289062 166.421875 257.351562 C 166.277344 257.414062 166.148438 257.5 166.039062 257.613281 C 165.929688 257.722656 165.84375 257.851562 165.78125 257.996094 C 165.71875 258.140625 165.6875 258.292969 165.683594 258.449219 C 165.683594 258.605469 165.714844 258.757812 165.777344 258.902344 C 165.835938 259.050781 165.921875 259.179688 166.035156 259.289062 C 166.144531 259.402344 166.273438 259.488281 166.417969 259.550781 C 166.5625 259.613281 166.714844 259.644531 166.871094 259.644531 Z M 166.878906 259.625 " fill-opacity="1" fill-rule="nonzero"/><path fill="#000f66" d="M 175.980469 266.121094 L 188.585938 319.785156 L 192.128906 334.839844 C 192.476562 336.335938 194.78125 335.703125 194.425781 334.203125 L 181.828125 280.539062 L 178.285156 265.484375 C 177.9375 263.988281 175.632812 264.621094 175.980469 266.121094 Z M 175.980469 266.121094 " fill-opacity="1" fill-rule="nonzero"/><path fill="#000f66" d="M 194.664062 336.710938 L 244.203125 336.710938 C 244.515625 336.6875 244.777344 336.5625 244.988281 336.332031 C 245.199219 336.101562 245.304688 335.832031 245.304688 335.519531 C 245.304688 335.207031 245.199219 334.933594 244.988281 334.707031 C 244.777344 334.476562 244.515625 334.351562 244.203125 334.324219 L 194.664062 334.324219 C 194.355469 334.351562 194.09375 334.476562 193.882812 334.707031 C 193.667969 334.933594 193.5625 335.207031 193.5625 335.519531 C 193.5625 335.832031 193.667969 336.101562 193.882812 336.332031 C 194.09375 336.5625 194.355469 336.6875 194.664062 336.710938 Z M 194.664062 336.710938 " fill-opacity="1" fill-rule="nonzero"/><path fill="#000f66" d="M 244.753906 336.726562 C 245.320312 336.675781 245.890625 336.679688 246.457031 336.730469 C 247.023438 336.78125 247.585938 336.882812 248.132812 337.03125 C 248.683594 337.183594 249.214844 337.378906 249.730469 337.625 C 250.246094 337.871094 250.734375 338.160156 251.199219 338.488281 C 251.664062 338.820312 252.09375 339.191406 252.492188 339.601562 C 252.890625 340.007812 253.25 340.449219 253.570312 340.921875 C 253.890625 341.390625 254.167969 341.886719 254.402344 342.410156 C 254.632812 342.929688 254.816406 343.46875 254.957031 344.023438 C 255.296875 345.523438 257.601562 344.882812 257.257812 343.382812 C 257.089844 342.703125 256.859375 342.042969 256.570312 341.402344 C 256.285156 340.761719 255.945312 340.152344 255.550781 339.570312 C 255.15625 338.988281 254.714844 338.445312 254.226562 337.945312 C 253.738281 337.441406 253.207031 336.984375 252.640625 336.574219 C 252.070312 336.160156 251.46875 335.804688 250.839844 335.5 C 250.207031 335.191406 249.554688 334.945312 248.878906 334.753906 C 248.203125 334.5625 247.519531 334.433594 246.820312 334.363281 C 246.121094 334.289062 245.425781 334.28125 244.726562 334.332031 C 244.566406 334.335938 244.417969 334.371094 244.273438 334.429688 C 244.128906 334.492188 244 334.582031 243.886719 334.691406 C 243.777344 334.804688 243.691406 334.929688 243.628906 335.074219 C 243.566406 335.222656 243.53125 335.371094 243.53125 335.53125 C 243.53125 335.6875 243.5625 335.839844 243.621094 335.988281 C 243.683594 336.132812 243.769531 336.261719 243.882812 336.375 C 243.992188 336.484375 244.121094 336.570312 244.269531 336.632812 C 244.414062 336.695312 244.566406 336.726562 244.726562 336.726562 Z M 244.753906 336.726562 " fill-opacity="1" fill-rule="nonzero"/><path fill="#000f66" d="M 102.074219 311.664062 C 102.613281 317.140625 106.960938 321.597656 112.21875 322.839844 C 117.480469 324.078125 123.167969 321.816406 126.558594 317.660156 C 127.410156 316.632812 128.097656 315.507812 128.632812 314.285156 C 129.164062 313.0625 129.515625 311.789062 129.683594 310.464844 C 129.855469 309.140625 129.839844 307.820312 129.636719 306.5 C 129.433594 305.183594 129.054688 303.917969 128.492188 302.707031 C 127.964844 301.496094 127.285156 300.378906 126.453125 299.355469 C 125.621094 298.332031 124.667969 297.4375 123.589844 296.671875 C 122.511719 295.910156 121.355469 295.304688 120.113281 294.855469 C 118.871094 294.410156 117.59375 294.136719 116.277344 294.042969 C 114.816406 293.980469 113.375 294.125 111.957031 294.480469 C 110.539062 294.835938 109.199219 295.386719 107.9375 296.128906 C 106.679688 296.871094 105.550781 297.777344 104.554688 298.847656 C 103.554688 299.917969 102.730469 301.109375 102.074219 302.417969 C 101.421875 303.800781 103.480469 305.019531 104.140625 303.628906 C 104.617188 302.640625 105.214844 301.726562 105.925781 300.890625 C 106.636719 300.054688 107.445312 299.324219 108.347656 298.699219 C 109.246094 298.070312 110.214844 297.570312 111.246094 297.191406 C 112.273438 296.8125 113.335938 296.574219 114.429688 296.46875 C 115.511719 296.402344 116.582031 296.476562 117.644531 296.695312 C 118.707031 296.914062 119.722656 297.269531 120.691406 297.757812 C 121.660156 298.246094 122.546875 298.855469 123.355469 299.578125 C 124.160156 300.304688 124.859375 301.125 125.445312 302.035156 C 126.035156 302.949219 126.492188 303.921875 126.824219 304.953125 C 127.152344 305.988281 127.339844 307.046875 127.386719 308.132812 C 127.4375 309.21875 127.339844 310.289062 127.101562 311.347656 C 126.863281 312.40625 126.492188 313.414062 125.984375 314.375 C 125.4375 315.335938 124.773438 316.210938 123.996094 317 C 123.21875 317.789062 122.355469 318.464844 121.402344 319.03125 C 120.449219 319.59375 119.441406 320.027344 118.375 320.328125 C 117.308594 320.628906 116.222656 320.789062 115.117188 320.808594 C 110.105469 320.734375 104.972656 316.820312 104.503906 311.664062 C 104.351562 310.148438 101.960938 310.132812 102.113281 311.664062 Z M 102.074219 311.664062 " fill-opacity="1" fill-rule="nonzero"/><path fill="#000f66" d="M 94.480469 194.09375 L 83.003906 242.820312 L 79.730469 256.738281 C 79.375 258.238281 81.679688 258.875 82.035156 257.375 L 93.511719 208.648438 L 96.785156 194.734375 C 97.140625 193.230469 94.835938 192.59375 94.480469 194.09375 Z M 94.480469 194.09375 " fill-opacity="1" fill-rule="nonzero"/><path fill="#000f66" d="M 92.019531 192.476562 C 94.917969 193.6875 97.980469 194.890625 101.191406 194.839844 C 102.480469 194.839844 103.722656 194.59375 104.910156 194.097656 C 106.101562 193.601562 107.152344 192.894531 108.058594 191.976562 C 108.507812 191.527344 108.882812 191.019531 109.1875 190.460938 C 109.492188 189.902344 109.710938 189.3125 109.847656 188.691406 C 109.984375 188.070312 110.03125 187.441406 109.988281 186.804688 C 109.945312 186.171875 109.816406 185.554688 109.597656 184.957031 C 108.558594 182.238281 106.257812 180.417969 103.648438 179.308594 C 100.328125 177.859375 96.699219 177.132812 93.234375 176.175781 C 93.085938 176.140625 92.933594 176.136719 92.78125 176.160156 C 92.628906 176.183594 92.488281 176.238281 92.355469 176.316406 C 92.222656 176.394531 92.113281 176.496094 92.019531 176.617188 C 91.925781 176.742188 91.859375 176.878906 91.816406 177.027344 C 91.777344 177.175781 91.765625 177.324219 91.785156 177.480469 C 91.800781 177.632812 91.847656 177.777344 91.921875 177.914062 C 91.992188 178.046875 92.089844 178.164062 92.207031 178.261719 C 92.328125 178.363281 92.460938 178.433594 92.605469 178.480469 C 95.265625 179.207031 97.945312 179.933594 100.574219 180.730469 C 102.835938 181.453125 105.234375 182.410156 106.632812 184.433594 C 106.9375 184.824219 107.171875 185.25 107.335938 185.71875 C 107.5 186.183594 107.585938 186.664062 107.589844 187.15625 C 107.597656 187.652344 107.523438 188.132812 107.371094 188.605469 C 107.21875 189.074219 106.992188 189.507812 106.699219 189.902344 C 106.050781 190.679688 105.269531 191.292969 104.359375 191.734375 C 103.449219 192.175781 102.488281 192.414062 101.472656 192.441406 C 98.386719 192.578125 95.4375 191.332031 92.640625 190.171875 C 92.492188 190.132812 92.339844 190.125 92.183594 190.148438 C 92.027344 190.167969 91.882812 190.21875 91.75 190.296875 C 91.613281 190.375 91.5 190.472656 91.402344 190.597656 C 91.304688 190.71875 91.234375 190.855469 91.191406 191.003906 C 91.15625 191.15625 91.152344 191.308594 91.175781 191.460938 C 91.195312 191.617188 91.246094 191.761719 91.324219 191.894531 C 91.402344 192.03125 91.5 192.144531 91.621094 192.242188 C 91.742188 192.339844 91.878906 192.410156 92.027344 192.457031 Z M 92.019531 192.476562 " fill-opacity="1" fill-rule="nonzero"/><path fill="#000f66" d="M 113.058594 181.257812 C 117.210938 178.199219 116.160156 171.949219 112.640625 168.835938 C 110.429688 167.046875 107.941406 165.824219 105.175781 165.167969 C 101.9375 164.246094 98.65625 163.507812 95.375 162.6875 C 93.925781 162.316406 93.25 164.621094 94.742188 164.992188 C 97.5625 165.71875 100.386719 166.386719 103.207031 167.109375 C 105.585938 167.613281 107.820312 168.488281 109.90625 169.734375 C 110.769531 170.265625 111.492188 170.945312 112.074219 171.773438 C 112.65625 172.601562 113.054688 173.507812 113.261719 174.5 C 113.597656 176.144531 113.261719 178.125 111.855469 179.191406 C 110.632812 180.089844 111.820312 182.171875 113.058594 181.257812 Z M 113.058594 181.257812 " fill-opacity="1" fill-rule="nonzero"/><path fill="#000f66" d="M 118.015625 169.917969 C 119.863281 168.277344 120.355469 165.769531 119.921875 163.390625 C 119.65625 162.175781 119.175781 161.050781 118.476562 160.023438 C 117.777344 158.996094 116.910156 158.136719 115.878906 157.445312 C 113.648438 155.820312 110.957031 154.941406 108.363281 154.070312 L 98.582031 150.765625 C 97.132812 150.269531 96.496094 152.585938 97.945312 153.070312 L 106.160156 155.847656 C 108.574219 156.542969 110.902344 157.445312 113.152344 158.554688 C 114.996094 159.5625 116.695312 160.984375 117.363281 163.042969 C 117.949219 164.855469 117.820312 166.886719 116.328125 168.207031 C 115.175781 169.226562 116.871094 170.917969 118.015625 169.894531 Z M 118.015625 169.917969 " fill-opacity="1" fill-rule="nonzero"/><path fill="#000f66" d="M 118.371094 161.171875 C 121.6875 157.804688 120.921875 152.390625 118.152344 148.945312 C 116.503906 147.015625 114.539062 145.496094 112.261719 144.375 C 109.878906 143.113281 107.410156 142.042969 104.859375 141.164062 C 99.554688 139.351562 94.03125 139.199219 89.15625 142.25 C 84.808594 144.960938 82.289062 149.167969 79.585938 153.339844 C 71.433594 165.890625 63.644531 178.546875 57.667969 192.316406 C 53.472656 202.035156 49.90625 212 46.285156 221.964844 C 45.769531 223.414062 48.074219 224.039062 48.589844 222.59375 C 53.898438 207.707031 59.285156 192.738281 66.8125 178.800781 C 70.195312 172.644531 73.816406 166.695312 77.609375 160.808594 C 80.011719 157.042969 82.339844 153.1875 84.925781 149.546875 C 87.644531 145.71875 91.867188 142.4375 96.699219 142.191406 C 99.71875 142.15625 102.613281 142.726562 105.394531 143.902344 C 108.054688 144.863281 110.585938 146.089844 112.988281 147.582031 C 115.089844 148.929688 117.03125 150.765625 117.792969 153.214844 C 118.457031 155.390625 118.296875 157.8125 116.660156 159.480469 C 115.582031 160.578125 117.269531 162.273438 118.347656 161.171875 Z M 118.371094 161.171875 " fill-opacity="1" fill-rule="nonzero"/><path fill="#000f66" d="M 39.097656 242.996094 L 34.234375 263.015625 C 32.671875 269.457031 30.96875 275.898438 30.0625 282.472656 C 29.207031 288.703125 29.035156 295.207031 30.789062 301.328125 C 32.160156 306.214844 34.613281 310.476562 38.148438 314.113281 C 39.082031 315.101562 40.105469 315.992188 41.210938 316.785156 C 42.316406 317.574219 43.488281 318.253906 44.726562 318.820312 C 45.960938 319.386719 47.242188 319.828125 48.5625 320.148438 C 49.882812 320.46875 51.222656 320.660156 52.582031 320.722656 C 54.117188 320.757812 54.117188 318.371094 52.582031 318.328125 C 43.023438 318.089844 35.765625 309.710938 33.191406 301.0625 C 29.636719 289.183594 33.4375 276.40625 36.257812 264.800781 L 41.394531 243.625 C 41.765625 242.132812 39.460938 241.492188 39.097656 242.996094 Z M 39.097656 242.996094 " fill-opacity="1" fill-rule="nonzero"/><path fill="#000f66" d="M 112.597656 257.0625 C 114.324219 242.859375 116.9375 228.824219 120.441406 214.953125 C 120.820312 213.5 118.515625 212.828125 118.140625 214.320312 C 114.59375 228.402344 111.949219 242.648438 110.207031 257.0625 C 110.023438 258.585938 112.414062 258.570312 112.597656 257.0625 Z M 112.597656 257.0625 " fill-opacity="1" fill-rule="nonzero"/><path fill="#000f66" d="M 206.214844 323.664062 C 220.121094 321.335938 234.074219 319.003906 248.179688 318.515625 C 252.164062 318.378906 256.152344 318.394531 260.136719 318.582031 C 261.671875 318.660156 261.671875 316.269531 260.136719 316.195312 C 245.882812 315.507812 231.667969 317.191406 217.613281 319.386719 C 213.597656 320.019531 209.589844 320.683594 205.585938 321.359375 C 204.070312 321.613281 204.707031 323.917969 206.214844 323.664062 Z M 206.214844 323.664062 " fill-opacity="1" fill-rule="nonzero"/><path fill="#000f66" d="M 328.207031 303.960938 C 332.992188 314.207031 337.195312 324.6875 340.820312 335.398438 C 341.316406 336.847656 343.617188 336.226562 343.125 334.769531 C 339.433594 323.855469 335.144531 313.183594 330.265625 302.75 C 329.621094 301.359375 327.554688 302.578125 328.207031 303.960938 Z M 328.207031 303.960938 " fill-opacity="1" fill-rule="nonzero"/><path fill="#000f66" d="M 20.46875 344.898438 L 366.144531 344.898438 C 366.304688 344.898438 366.457031 344.867188 366.601562 344.808594 C 366.75 344.746094 366.878906 344.660156 366.988281 344.546875 C 367.101562 344.4375 367.1875 344.308594 367.25 344.160156 C 367.308594 344.015625 367.339844 343.859375 367.339844 343.703125 C 367.339844 343.542969 367.308594 343.390625 367.25 343.246094 C 367.1875 343.097656 367.101562 342.96875 366.988281 342.855469 C 366.878906 342.746094 366.75 342.65625 366.601562 342.597656 C 366.457031 342.535156 366.304688 342.507812 366.144531 342.507812 L 20.46875 342.507812 C 20.3125 342.507812 20.160156 342.535156 20.011719 342.597656 C 19.867188 342.65625 19.738281 342.746094 19.625 342.855469 C 19.511719 342.96875 19.425781 343.097656 19.363281 343.246094 C 19.304688 343.390625 19.273438 343.542969 19.273438 343.703125 C 19.273438 343.859375 19.304688 344.015625 19.363281 344.160156 C 19.425781 344.308594 19.511719 344.4375 19.625 344.546875 C 19.738281 344.660156 19.867188 344.746094 20.011719 344.808594 C 20.160156 344.867188 20.3125 344.898438 20.46875 344.898438 Z M 20.46875 344.898438 " fill-opacity="1" fill-rule="nonzero"/><path fill="#000f66" d="M 166.910156 118.558594 C 164.9375 120.640625 162.769531 123.054688 162.667969 126.085938 C 162.589844 128.550781 164.03125 131.285156 166.597656 131.824219 C 166.910156 131.894531 167.207031 131.847656 167.484375 131.6875 C 167.761719 131.527344 167.949219 131.296875 168.046875 130.988281 C 168.082031 130.835938 168.09375 130.683594 168.070312 130.53125 C 168.050781 130.375 168 130.230469 167.921875 130.09375 C 167.84375 129.960938 167.746094 129.84375 167.621094 129.746094 C 167.5 129.652344 167.363281 129.582031 167.210938 129.539062 C 166.839844 129.464844 166.5 129.3125 166.203125 129.078125 C 165.902344 128.847656 165.671875 128.554688 165.511719 128.210938 C 165.105469 127.460938 164.953125 126.664062 165.054688 125.816406 C 165.269531 123.714844 167.125 121.800781 168.574219 120.269531 C 169.632812 119.152344 167.945312 117.457031 166.886719 118.582031 Z M 166.910156 118.558594 " fill-opacity="1" fill-rule="nonzero"/><path fill="#000f66" d="M 163.386719 139.617188 C 163.816406 139.992188 164.265625 140.34375 164.734375 140.667969 C 165.203125 140.996094 165.6875 141.292969 166.191406 141.5625 C 166.695312 141.832031 167.210938 142.074219 167.738281 142.285156 C 168.269531 142.496094 168.808594 142.679688 169.359375 142.828125 C 169.910156 142.980469 170.46875 143.097656 171.03125 143.1875 C 171.59375 143.273438 172.160156 143.332031 172.730469 143.355469 C 173.300781 143.378906 173.871094 143.371094 174.441406 143.332031 C 175.007812 143.289062 175.574219 143.21875 176.132812 143.113281 C 176.695312 143.007812 177.25 142.871094 177.792969 142.707031 C 178.339844 142.539062 178.875 142.34375 179.398438 142.113281 C 179.921875 141.886719 180.429688 141.632812 180.921875 141.347656 C 181.417969 141.0625 181.894531 140.75 182.355469 140.410156 C 182.8125 140.074219 183.253906 139.710938 183.671875 139.320312 C 184.089844 138.933594 184.484375 138.523438 184.855469 138.089844 C 185.226562 137.65625 185.574219 137.203125 185.894531 136.734375 C 186.214844 136.261719 186.507812 135.773438 186.777344 135.265625 C 187.5 133.910156 185.441406 132.699219 184.71875 134.0625 C 183.828125 135.738281 182.632812 137.15625 181.132812 138.3125 C 179.628906 139.472656 177.957031 140.265625 176.109375 140.699219 C 175.148438 140.898438 174.175781 140.992188 173.195312 140.96875 C 172.210938 140.949219 171.246094 140.820312 170.292969 140.582031 C 169.339844 140.339844 168.425781 139.996094 167.550781 139.550781 C 166.675781 139.101562 165.863281 138.5625 165.113281 137.929688 C 163.945312 136.941406 162.214844 138.652344 163.421875 139.617188 Z M 163.386719 139.617188 " fill-opacity="1" fill-rule="nonzero"/><path fill="#000f66" d="M 183.40625 130.828125 C 183.234375 131.875 183.375 132.878906 183.828125 133.839844 C 184.195312 134.628906 184.722656 135.296875 185.40625 135.839844 C 186.132812 136.476562 186.96875 136.886719 187.914062 137.074219 C 188.859375 137.261719 189.789062 137.199219 190.703125 136.882812 C 191.011719 136.789062 191.253906 136.605469 191.425781 136.332031 C 191.589844 136.042969 191.628906 135.734375 191.542969 135.410156 C 191.5 135.261719 191.429688 135.125 191.332031 135.003906 C 191.238281 134.878906 191.121094 134.78125 190.988281 134.703125 C 190.851562 134.625 190.707031 134.574219 190.550781 134.554688 C 190.398438 134.53125 190.246094 134.539062 190.09375 134.578125 C 189.933594 134.644531 189.769531 134.699219 189.601562 134.746094 C 189.503906 134.753906 189.40625 134.773438 189.3125 134.804688 L 189.484375 134.804688 L 189.339844 134.804688 C 189.171875 134.8125 189.003906 134.8125 188.832031 134.804688 C 188.789062 134.804688 188.476562 134.757812 188.695312 134.804688 C 188.914062 134.847656 188.609375 134.804688 188.566406 134.804688 C 188.398438 134.773438 188.234375 134.730469 188.074219 134.671875 L 187.863281 134.601562 L 187.941406 134.636719 L 187.804688 134.570312 C 187.660156 134.5 187.515625 134.425781 187.375 134.339844 L 187.160156 134.195312 C 187.160156 134.195312 186.871094 133.992188 187.035156 134.113281 C 187.203125 134.238281 186.957031 134.042969 186.925781 134.019531 L 186.761719 133.867188 C 186.628906 133.742188 186.515625 133.613281 186.398438 133.484375 L 186.304688 133.367188 L 186.355469 133.433594 C 186.316406 133.367188 186.277344 133.308594 186.230469 133.25 C 186.136719 133.105469 186.054688 132.957031 185.976562 132.800781 L 185.914062 132.664062 L 185.976562 132.816406 C 185.957031 132.71875 185.921875 132.628906 185.878906 132.539062 C 185.828125 132.378906 185.789062 132.214844 185.753906 132.046875 C 185.71875 131.878906 185.753906 132.335938 185.753906 132.046875 C 185.753906 131.945312 185.753906 131.851562 185.753906 131.75 C 185.753906 131.648438 185.753906 131.605469 185.753906 131.53125 C 185.753906 131.460938 185.804688 131.097656 185.753906 131.472656 C 185.832031 131.152344 185.792969 130.84375 185.628906 130.554688 C 185.460938 130.273438 185.222656 130.089844 184.90625 130.003906 C 184.753906 129.964844 184.601562 129.957031 184.449219 129.980469 C 184.292969 130 184.148438 130.050781 184.015625 130.128906 C 183.878906 130.207031 183.765625 130.304688 183.667969 130.429688 C 183.570312 130.550781 183.5 130.6875 183.457031 130.835938 Z M 183.40625 130.828125 " fill-opacity="1" fill-rule="nonzero"/><path fill="#000f66" d="M 158.773438 100.378906 L 159.003906 100.378906 C 159.183594 100.378906 158.714844 100.335938 159.003906 100.378906 L 159.421875 100.457031 C 159.714844 100.515625 160 100.59375 160.277344 100.691406 L 160.765625 100.90625 C 160.972656 100.988281 160.648438 100.847656 160.765625 100.90625 L 160.972656 101.007812 C 161.246094 101.132812 161.503906 101.277344 161.757812 101.4375 C 161.871094 101.507812 161.996094 101.582031 162.113281 101.667969 L 162.300781 101.800781 C 162.34375 101.800781 162.515625 101.980469 162.300781 101.800781 C 162.523438 101.996094 162.75 102.183594 162.960938 102.394531 C 163.167969 102.605469 163.367188 102.824219 163.554688 103.054688 C 163.699219 103.226562 163.488281 102.953125 163.554688 103.054688 L 163.691406 103.25 C 163.777344 103.371094 163.859375 103.511719 163.945312 103.640625 C 164.023438 103.777344 164.128906 103.894531 164.253906 103.988281 C 164.378906 104.085938 164.519531 104.152344 164.671875 104.191406 C 164.824219 104.234375 164.980469 104.242188 165.136719 104.222656 C 165.292969 104.199219 165.4375 104.148438 165.574219 104.070312 C 165.710938 103.988281 165.828125 103.886719 165.921875 103.761719 C 166.019531 103.632812 166.085938 103.496094 166.125 103.34375 C 166.167969 103.1875 166.175781 103.035156 166.15625 102.878906 C 166.132812 102.71875 166.082031 102.574219 166.003906 102.4375 C 165.613281 101.808594 165.160156 101.234375 164.636719 100.710938 C 164.113281 100.191406 163.539062 99.738281 162.910156 99.351562 C 162.28125 98.964844 161.613281 98.65625 160.914062 98.425781 C 160.210938 98.199219 159.492188 98.050781 158.757812 97.992188 C 158.597656 97.992188 158.449219 98.023438 158.300781 98.085938 C 158.15625 98.144531 158.027344 98.230469 157.917969 98.34375 C 157.804688 98.453125 157.71875 98.582031 157.65625 98.726562 C 157.59375 98.871094 157.5625 99.023438 157.5625 99.179688 C 157.566406 99.339844 157.597656 99.488281 157.660156 99.632812 C 157.722656 99.777344 157.8125 99.90625 157.921875 100.015625 C 158.03125 100.128906 158.160156 100.214844 158.304688 100.277344 C 158.449219 100.339844 158.601562 100.375 158.757812 100.378906 Z M 158.773438 100.378906 " fill-opacity="1" fill-rule="nonzero"/><path fill="#000f66" d="M 184.921875 107.695312 C 186.191406 107 187.539062 106.527344 188.964844 106.277344 C 190.394531 106.03125 191.824219 106.019531 193.253906 106.246094 C 193.566406 106.316406 193.863281 106.273438 194.140625 106.113281 C 194.417969 105.949219 194.605469 105.71875 194.703125 105.410156 C 194.738281 105.257812 194.746094 105.105469 194.722656 104.949219 C 194.703125 104.796875 194.652344 104.652344 194.574219 104.515625 C 194.496094 104.382812 194.394531 104.265625 194.269531 104.167969 C 194.148438 104.074219 194.011719 104.003906 193.863281 103.960938 C 192.125 103.664062 190.386719 103.660156 188.648438 103.949219 C 186.910156 104.238281 185.265625 104.800781 183.71875 105.644531 C 182.371094 106.367188 183.574219 108.441406 184.929688 107.703125 Z M 184.921875 107.695312 " fill-opacity="1" fill-rule="nonzero"/><path fill="#000f66" d="M 107.21875 101.980469 C 104.953125 109.320312 105.863281 118.058594 110.996094 124.019531 C 116.710938 130.660156 126.660156 131.671875 134.375 128.261719 C 141.703125 125.019531 147.1875 117.847656 147.417969 109.71875 C 147.722656 102.023438 143.503906 94.378906 136.484375 91.015625 C 129.464844 87.652344 119.152344 87.289062 113.734375 93.726562 C 112.75 94.894531 114.457031 96.628906 115.421875 95.417969 C 119.6875 90.339844 127.441406 90.289062 133.261719 92.269531 C 134.046875 92.539062 134.8125 92.863281 135.550781 93.242188 C 136.292969 93.625 137.003906 94.054688 137.683594 94.535156 C 138.359375 95.015625 139.003906 95.542969 139.605469 96.113281 C 140.210938 96.6875 140.769531 97.300781 141.285156 97.953125 C 141.804688 98.605469 142.269531 99.292969 142.6875 100.011719 C 143.105469 100.734375 143.472656 101.480469 143.785156 102.25 C 144.09375 103.023438 144.351562 103.8125 144.546875 104.621094 C 144.746094 105.429688 144.886719 106.25 144.96875 107.078125 C 145.738281 114.332031 141.882812 121.125 135.722656 124.867188 C 129.339844 128.742188 120.335938 129.109375 114.429688 124.070312 C 108.378906 118.898438 107.269531 109.886719 109.523438 102.613281 C 109.980469 101.160156 107.667969 100.507812 107.21875 101.980469 Z M 107.21875 101.980469 " fill-opacity="1" fill-rule="nonzero"/><path fill="#000f66" d="M 143.976562 83.460938 C 141.175781 81.347656 138.078125 79.855469 134.679688 78.976562 C 131.785156 78.316406 128.863281 78.183594 125.921875 78.578125 C 120.9375 79.105469 116.371094 80.769531 112.21875 83.574219 C 107.226562 87.003906 103.34375 91.777344 100.226562 96.910156 C 96.648438 102.800781 95.714844 109.90625 96.777344 116.652344 C 97.742188 122.777344 100.402344 128.886719 104.886719 133.230469 C 108.953125 137.144531 114.304688 139.457031 119.796875 140.480469 C 125.957031 141.582031 132.457031 141.488281 138.265625 138.972656 C 141.195312 137.671875 143.75 135.851562 145.933594 133.503906 C 148.089844 131.3125 150.023438 128.9375 151.730469 126.375 C 153.574219 123.351562 154.902344 120.113281 155.714844 116.660156 C 156.523438 113.210938 156.773438 109.71875 156.46875 106.1875 C 156.332031 104.375 156.042969 102.585938 155.59375 100.824219 C 155.148438 99.0625 154.550781 97.351562 153.808594 95.695312 C 153.0625 94.035156 152.175781 92.457031 151.15625 90.953125 C 150.132812 89.449219 148.988281 88.046875 147.722656 86.746094 C 146.550781 85.554688 145.292969 84.460938 143.953125 83.460938 C 142.722656 82.539062 141.535156 84.613281 142.746094 85.527344 C 145.402344 87.523438 147.644531 89.910156 149.472656 92.6875 C 151.296875 95.460938 152.605469 98.464844 153.386719 101.699219 C 154.1875 105.085938 154.425781 108.511719 154.097656 111.976562 C 153.773438 115.4375 152.902344 118.761719 151.484375 121.9375 C 150.308594 124.433594 148.816406 126.722656 147.003906 128.804688 C 145.167969 131.132812 143.058594 133.179688 140.679688 134.949219 C 135.804688 138.253906 129.863281 139.125 124.09375 138.652344 C 118.804688 138.226562 113.507812 136.753906 109.132812 133.671875 C 104.640625 130.515625 101.734375 125.753906 100.140625 120.558594 C 99.15625 117.484375 98.699219 114.332031 98.761719 111.101562 C 98.828125 107.871094 99.410156 104.738281 100.519531 101.703125 C 101.757812 98.761719 103.382812 96.050781 105.386719 93.566406 C 107.015625 91.390625 108.851562 89.40625 110.902344 87.621094 C 118.304688 81.195312 129.609375 78.460938 138.664062 82.988281 C 140.105469 83.714844 141.472656 84.5625 142.765625 85.527344 C 144.003906 86.441406 145.199219 84.367188 143.976562 83.460938 Z M 143.976562 83.460938 " fill-opacity="1" fill-rule="nonzero"/><path fill="#000f66" d="M 103.207031 141.425781 L 107.074219 133.671875 C 107.148438 133.535156 107.195312 133.390625 107.210938 133.234375 C 107.226562 133.082031 107.214844 132.929688 107.171875 132.78125 C 107.132812 132.628906 107.0625 132.492188 106.96875 132.371094 C 106.871094 132.25 106.757812 132.148438 106.625 132.070312 C 106.492188 131.992188 106.347656 131.941406 106.191406 131.917969 C 106.039062 131.898438 105.886719 131.90625 105.738281 131.941406 C 105.585938 131.980469 105.449219 132.042969 105.324219 132.132812 C 105.195312 132.226562 105.09375 132.335938 105.011719 132.46875 L 101.140625 140.210938 C 101.0625 140.351562 101.011719 140.496094 100.988281 140.652344 C 100.96875 140.8125 100.976562 140.964844 101.015625 141.121094 C 101.058594 141.273438 101.125 141.414062 101.21875 141.539062 C 101.316406 141.667969 101.433594 141.769531 101.570312 141.851562 C 101.707031 141.929688 101.851562 141.980469 102.011719 142.003906 C 102.167969 142.023438 102.324219 142.015625 102.476562 141.976562 C 102.628906 141.9375 102.769531 141.867188 102.894531 141.773438 C 103.023438 141.675781 103.125 141.5625 103.207031 141.425781 Z M 103.207031 141.425781 " fill-opacity="1" fill-rule="nonzero"/><path fill="#000f66" d="M 115.050781 146.023438 L 118.398438 139.707031 C 118.492188 139.566406 118.550781 139.417969 118.582031 139.257812 C 118.609375 139.09375 118.609375 138.933594 118.570312 138.773438 C 118.535156 138.613281 118.46875 138.464844 118.371094 138.332031 C 118.273438 138.199219 118.152344 138.09375 118.011719 138.007812 C 117.871094 137.925781 117.71875 137.875 117.554688 137.851562 C 117.390625 137.832031 117.230469 137.847656 117.074219 137.890625 C 116.914062 137.9375 116.773438 138.011719 116.644531 138.117188 C 116.519531 138.222656 116.417969 138.347656 116.34375 138.492188 L 112.996094 144.8125 C 112.902344 144.949219 112.84375 145.097656 112.8125 145.257812 C 112.785156 145.421875 112.785156 145.582031 112.824219 145.742188 C 112.859375 145.902344 112.925781 146.050781 113.023438 146.183594 C 113.121094 146.316406 113.242188 146.421875 113.382812 146.507812 C 113.523438 146.589844 113.675781 146.640625 113.839844 146.664062 C 114.003906 146.683594 114.164062 146.671875 114.320312 146.625 C 114.480469 146.578125 114.621094 146.503906 114.75 146.398438 C 114.875 146.292969 114.976562 146.167969 115.050781 146.023438 Z M 115.050781 146.023438 " fill-opacity="1" fill-rule="nonzero"/><path fill="#000f66" d="M 161.738281 106.273438 C 161.933594 106.320312 162.121094 106.40625 162.296875 106.527344 C 162.46875 106.652344 162.632812 106.8125 162.777344 107.007812 C 162.921875 107.203125 163.050781 107.429688 163.164062 107.6875 C 163.277344 107.949219 163.367188 108.234375 163.441406 108.546875 C 163.515625 108.863281 163.566406 109.195312 163.597656 109.554688 C 163.628906 109.910156 163.640625 110.28125 163.628906 110.664062 C 163.617188 111.050781 163.585938 111.441406 163.53125 111.839844 C 163.476562 112.238281 163.402344 112.636719 163.308594 113.03125 C 163.214844 113.429688 163.105469 113.820312 162.972656 114.199219 C 162.84375 114.578125 162.695312 114.945312 162.535156 115.292969 C 162.371094 115.640625 162.195312 115.96875 162.007812 116.273438 C 161.820312 116.578125 161.625 116.851562 161.417969 117.101562 C 161.210938 117.347656 161 117.5625 160.785156 117.746094 C 160.570312 117.925781 160.351562 118.070312 160.132812 118.179688 C 159.914062 118.289062 159.699219 118.359375 159.488281 118.390625 C 159.277344 118.421875 159.074219 118.414062 158.875 118.367188 C 158.679688 118.320312 158.492188 118.238281 158.316406 118.113281 C 158.140625 117.992188 157.980469 117.832031 157.835938 117.636719 C 157.6875 117.441406 157.558594 117.214844 157.449219 116.953125 C 157.335938 116.695312 157.242188 116.40625 157.171875 116.09375 C 157.097656 115.78125 157.046875 115.445312 157.015625 115.089844 C 156.984375 114.734375 156.972656 114.363281 156.984375 113.976562 C 156.996094 113.59375 157.027344 113.203125 157.082031 112.804688 C 157.136719 112.402344 157.207031 112.007812 157.300781 111.609375 C 157.398438 111.210938 157.507812 110.824219 157.640625 110.441406 C 157.769531 110.0625 157.917969 109.699219 158.078125 109.347656 C 158.242188 109 158.414062 108.671875 158.605469 108.371094 C 158.792969 108.066406 158.988281 107.789062 159.195312 107.542969 C 159.398438 107.292969 159.609375 107.078125 159.828125 106.898438 C 160.042969 106.714844 160.261719 106.570312 160.476562 106.460938 C 160.695312 106.351562 160.910156 106.28125 161.125 106.25 C 161.335938 106.21875 161.539062 106.226562 161.738281 106.273438 Z M 161.738281 106.273438 " fill-opacity="1" fill-rule="nonzero"/><path fill="#000f66" d="M 182.871094 119.550781 C 184.613281 118.679688 186.460938 118.25 188.414062 118.261719 C 189.335938 118.292969 190.253906 118.398438 191.160156 118.582031 C 192.027344 118.796875 192.878906 118.746094 193.714844 118.429688 C 193.941406 118.328125 194.140625 118.191406 194.316406 118.019531 C 194.496094 117.851562 194.640625 117.65625 194.75 117.4375 C 194.863281 117.21875 194.9375 116.988281 194.96875 116.746094 C 195.003906 116.503906 194.996094 116.261719 194.949219 116.019531 C 194.832031 115.507812 194.59375 115.066406 194.230469 114.6875 C 193.863281 114.3125 193.425781 114.0625 192.917969 113.933594 C 191.960938 113.710938 190.996094 113.667969 190.019531 113.808594 C 189.015625 113.890625 188.027344 114.074219 187.058594 114.351562 C 184.898438 114.988281 182.96875 116.039062 181.261719 117.507812 C 181.152344 117.621094 181.066406 117.75 181.003906 117.894531 C 180.945312 118.042969 180.914062 118.195312 180.914062 118.351562 C 180.914062 118.511719 180.945312 118.660156 181.003906 118.808594 C 181.066406 118.953125 181.152344 119.085938 181.261719 119.195312 C 181.375 119.304688 181.503906 119.386719 181.652344 119.445312 C 181.796875 119.503906 181.949219 119.535156 182.105469 119.535156 C 182.261719 119.535156 182.414062 119.503906 182.558594 119.445312 C 182.707031 119.386719 182.835938 119.304688 182.949219 119.195312 C 184.492188 117.902344 186.238281 117.011719 188.1875 116.527344 C 189.082031 116.300781 189.992188 116.171875 190.914062 116.144531 C 191.386719 116.09375 191.859375 116.121094 192.324219 116.230469 C 192.585938 116.324219 192.664062 116.644531 192.695312 116.308594 L 192.78125 116.246094 L 192.714844 116.246094 C 192.589844 116.257812 192.464844 116.257812 192.339844 116.246094 C 191.980469 116.230469 191.628906 116.179688 191.28125 116.09375 C 190.25 115.886719 189.207031 115.785156 188.152344 115.796875 C 185.878906 115.84375 183.730469 116.382812 181.703125 117.414062 C 181.566406 117.492188 181.449219 117.597656 181.355469 117.722656 C 181.257812 117.847656 181.191406 117.988281 181.148438 118.144531 C 181.109375 118.296875 181.101562 118.453125 181.121094 118.609375 C 181.144531 118.769531 181.195312 118.914062 181.273438 119.050781 C 181.355469 119.191406 181.457031 119.304688 181.585938 119.402344 C 181.710938 119.5 181.851562 119.566406 182.003906 119.605469 C 182.160156 119.644531 182.316406 119.65625 182.472656 119.632812 C 182.628906 119.613281 182.777344 119.558594 182.914062 119.480469 Z M 182.871094 119.550781 " fill-opacity="1" fill-rule="nonzero"/><path fill="#000f66" d="M 142.917969 83.320312 C 142.632812 82.574219 142.398438 81.8125 142.21875 81.03125 C 142.039062 80.253906 141.914062 79.464844 141.84375 78.667969 C 141.777344 77.871094 141.765625 77.074219 141.808594 76.277344 C 141.851562 75.476562 141.953125 74.6875 142.109375 73.902344 C 142.265625 73.117188 142.476562 72.347656 142.742188 71.59375 C 143.003906 70.839844 143.320312 70.105469 143.691406 69.398438 C 144.058594 68.6875 144.472656 68.007812 144.9375 67.355469 C 145.402344 66.703125 145.910156 66.089844 146.460938 65.511719 C 152.257812 59.507812 160.226562 60.304688 161.199219 60.433594 C 163.535156 60.707031 165.726562 61.417969 167.777344 62.566406 C 168.859375 59.617188 170.457031 56.980469 172.566406 54.65625 C 174.015625 53.050781 178.957031 47.816406 187.058594 47.097656 C 189.441406 46.902344 191.792969 47.097656 194.113281 47.671875 C 196.433594 48.25 198.597656 49.183594 200.613281 50.46875 C 202.875 51.945312 204.816406 53.765625 206.4375 55.925781 C 208.054688 58.089844 209.253906 60.464844 210.035156 63.050781 C 212.800781 61.285156 215.808594 60.191406 219.0625 59.757812 C 220.757812 59.542969 229.515625 58.425781 235.253906 64.464844 C 236.394531 65.722656 237.328125 67.117188 238.046875 68.65625 C 238.769531 70.191406 239.25 71.800781 239.488281 73.480469 C 240.121094 76.617188 239.859375 79.679688 238.695312 82.660156 C 237.941406 84.507812 236.871094 86.148438 235.488281 87.585938 C 237.445312 88.507812 239.179688 89.742188 240.6875 91.292969 C 241.300781 91.90625 241.863281 92.5625 242.378906 93.261719 C 242.890625 93.960938 243.347656 94.695312 243.746094 95.464844 C 244.148438 96.234375 244.488281 97.03125 244.765625 97.851562 C 245.042969 98.671875 245.257812 99.511719 245.410156 100.367188 C 245.558594 101.21875 245.644531 102.082031 245.664062 102.949219 C 245.683594 103.816406 245.636719 104.679688 245.523438 105.539062 C 245.410156 106.398438 245.234375 107.246094 244.992188 108.078125 C 244.75 108.914062 244.445312 109.722656 244.078125 110.507812 C 242.765625 113.40625 240.820312 115.78125 238.238281 117.636719 C 237.609375 115.867188 236.699219 114.253906 235.515625 112.792969 C 234.328125 111.335938 232.9375 110.113281 231.335938 109.132812 C 229.125 107.71875 226.710938 107.027344 224.089844 107.058594 C 218.054688 107.261719 214.359375 112.132812 213.800781 112.902344 C 211.914062 113.78125 209.933594 114.132812 207.859375 113.960938 C 206.242188 113.777344 204.722656 113.292969 203.300781 112.5 C 201.878906 111.707031 200.664062 110.671875 199.65625 109.390625 C 195.652344 104.097656 198.171875 97.671875 198.296875 97.367188 C 197.703125 97.886719 197.074219 98.355469 196.410156 98.777344 C 195.742188 99.199219 195.050781 99.570312 194.328125 99.882812 C 193.609375 100.199219 192.867188 100.457031 192.105469 100.660156 C 191.34375 100.863281 190.574219 101.007812 189.789062 101.089844 C 189.007812 101.171875 188.222656 101.199219 187.4375 101.160156 C 186.648438 101.125 185.871094 101.027344 185.097656 100.871094 C 184.328125 100.71875 183.570312 100.503906 182.832031 100.230469 C 182.09375 99.960938 181.378906 99.632812 180.6875 99.253906 C 174.21875 95.628906 173.167969 88.515625 173.058594 87.652344 C 171.441406 89.679688 169.476562 91.28125 167.167969 92.464844 C 159.886719 96.164062 152.503906 93.445312 151.027344 92.863281 C 149.859375 91.226562 148.527344 89.5 147.003906 87.722656 C 145.621094 86.089844 144.246094 84.632812 142.917969 83.320312 Z M 142.917969 83.320312 " fill-opacity="1" fill-rule="nonzero"/><path fill="#000f66" d="M 210.699219 133.367188 C 212.101562 134.210938 213.578125 134.890625 215.128906 135.40625 C 217.8125 136.296875 220.5625 136.664062 223.386719 136.515625 C 217.589844 142.316406 211.792969 148.132812 205.996094 153.96875 C 205.953125 151.070312 205.597656 146.777344 205.5625 143.867188 C 207.546875 141.527344 209.039062 138.910156 210.035156 136.007812 C 210.484375 134.417969 210.578125 134.621094 210.699219 133.367188 Z M 210.699219 133.367188 " fill-opacity="1" fill-rule="nonzero"/><path fill="#ffffff" d="M 124.433594 122.867188 C 124.96875 122.925781 125.503906 122.957031 126.042969 122.957031 C 126.578125 122.957031 127.117188 122.929688 127.648438 122.871094 C 128.183594 122.8125 128.714844 122.722656 129.238281 122.601562 C 129.761719 122.484375 130.277344 122.335938 130.785156 122.160156 C 131.292969 121.984375 131.789062 121.777344 132.273438 121.546875 C 132.757812 121.3125 133.230469 121.054688 133.683594 120.769531 C 134.140625 120.484375 134.578125 120.175781 135 119.84375 C 135.421875 119.507812 135.824219 119.152344 136.203125 118.773438 C 136.585938 118.394531 136.945312 117.996094 137.28125 117.574219 C 137.617188 117.15625 137.929688 116.71875 138.21875 116.265625 C 138.507812 115.808594 138.769531 115.339844 139.003906 114.859375 C 139.238281 114.375 139.445312 113.878906 139.625 113.371094 C 139.804688 112.863281 139.957031 112.347656 140.078125 111.824219 C 140.203125 111.300781 140.292969 110.773438 140.355469 110.238281 C 140.421875 109.703125 140.453125 109.167969 140.457031 108.628906 C 140.460938 108.09375 140.433594 107.554688 140.375 107.019531 C 140.371094 106.863281 140.335938 106.714844 140.273438 106.570312 C 140.210938 106.425781 140.125 106.296875 140.011719 106.1875 C 139.902344 106.074219 139.773438 105.988281 139.632812 105.925781 C 139.488281 105.863281 139.335938 105.828125 139.179688 105.824219 C 139.023438 105.824219 138.871094 105.855469 138.722656 105.917969 C 138.578125 105.976562 138.449219 106.066406 138.335938 106.175781 C 138.226562 106.289062 138.136719 106.417969 138.078125 106.5625 C 138.015625 106.710938 137.984375 106.863281 137.984375 107.019531 C 138.042969 107.476562 138.074219 107.933594 138.078125 108.394531 C 138.082031 108.855469 138.0625 109.3125 138.015625 109.773438 C 137.964844 110.230469 137.894531 110.683594 137.792969 111.132812 C 137.695312 111.582031 137.570312 112.023438 137.421875 112.457031 C 137.269531 112.890625 137.097656 113.316406 136.898438 113.734375 C 136.699219 114.148438 136.476562 114.550781 136.234375 114.9375 C 135.988281 115.328125 135.722656 115.703125 135.4375 116.0625 C 135.148438 116.421875 134.84375 116.761719 134.515625 117.085938 C 134.191406 117.410156 133.847656 117.714844 133.488281 118 C 133.125 118.285156 132.75 118.550781 132.359375 118.792969 C 131.96875 119.03125 131.5625 119.25 131.148438 119.445312 C 130.734375 119.644531 130.308594 119.8125 129.871094 119.960938 C 129.4375 120.109375 128.992188 120.230469 128.542969 120.324219 C 128.09375 120.421875 127.640625 120.492188 127.183594 120.535156 C 126.726562 120.582031 126.265625 120.597656 125.808594 120.589844 C 125.347656 120.582031 124.890625 120.546875 124.433594 120.488281 C 124.277344 120.488281 124.125 120.519531 123.980469 120.582031 C 123.832031 120.640625 123.703125 120.726562 123.59375 120.839844 C 123.480469 120.953125 123.394531 121.082031 123.332031 121.226562 C 123.273438 121.375 123.242188 121.527344 123.238281 121.683594 C 123.242188 121.839844 123.277344 121.992188 123.339844 122.136719 C 123.398438 122.28125 123.488281 122.410156 123.597656 122.523438 C 123.710938 122.632812 123.835938 122.71875 123.980469 122.78125 C 124.125 122.84375 124.277344 122.878906 124.433594 122.878906 Z M 124.433594 122.867188 " fill-opacity="1" fill-rule="nonzero"/><path fill="#ffffff" d="M 37.171875 93.566406 C 37.171875 92.335938 47.808594 93.945312 55.558594 87.511719 C 57.984375 85.394531 59.917969 82.890625 61.355469 80.007812 C 63.808594 75.484375 65.097656 70.648438 65.226562 65.503906 C 65.476562 70.589844 66.847656 75.351562 69.339844 79.789062 C 71.316406 83.601562 74.058594 86.742188 77.5625 89.21875 C 79.746094 90.679688 82.09375 91.78125 84.609375 92.523438 C 87.128906 93.265625 89.699219 93.613281 92.324219 93.566406 C 86.988281 94.050781 82.070312 95.742188 77.5625 98.644531 C 74.386719 100.59375 71.730469 103.097656 69.59375 106.152344 C 64.921875 112.988281 65.023438 120.351562 65.246094 123.335938 C 65.179688 117.949219 63.890625 112.875 61.378906 108.109375 C 59.992188 105.257812 58.136719 102.757812 55.8125 100.601562 C 48.039062 93.707031 37.140625 94.816406 37.171875 93.566406 Z M 37.171875 93.566406 " fill-opacity="1" fill-rule="nonzero"/><path fill="#000f66" d="M 95.730469 92.609375 C 91.707031 93.234375 87.671875 93.894531 83.730469 94.917969 C 80.839844 95.59375 78.105469 96.664062 75.519531 98.121094 C 70.738281 101.023438 68.277344 105.800781 66.746094 111.03125 C 65.589844 115.386719 64.707031 119.792969 64.101562 124.257812 L 66.40625 124.257812 C 65.777344 120.242188 65.125 116.203125 64.09375 112.257812 C 63.417969 109.363281 62.351562 106.625 60.890625 104.039062 C 57.992188 99.253906 53.21875 96.789062 47.996094 95.25 C 43.644531 94.09375 39.238281 93.214844 34.78125 92.609375 L 34.78125 94.917969 C 38.800781 94.285156 42.835938 93.632812 46.777344 92.605469 C 49.664062 91.925781 52.398438 90.859375 54.980469 89.398438 C 59.769531 86.496094 62.269531 81.71875 63.761719 76.488281 C 64.917969 72.136719 65.800781 67.726562 66.40625 63.261719 L 64.101562 63.261719 C 64.726562 67.289062 65.382812 71.320312 66.40625 75.265625 C 67.078125 78.164062 68.148438 80.910156 69.617188 83.503906 C 72.515625 88.289062 77.289062 90.753906 82.503906 92.292969 C 86.859375 93.445312 91.265625 94.328125 95.730469 94.9375 C 97.226562 95.171875 97.902344 92.863281 96.359375 92.632812 C 92.402344 92.015625 88.441406 91.363281 84.5625 90.371094 C 81.859375 89.765625 79.289062 88.796875 76.855469 87.46875 C 72.507812 84.886719 70.332031 80.472656 68.972656 75.632812 C 67.859375 71.367188 67.003906 67.050781 66.40625 62.683594 C 66.226562 61.542969 64.277344 61.542969 64.101562 62.683594 C 63.484375 66.640625 62.839844 70.609375 61.839844 74.496094 C 61.242188 77.203125 60.273438 79.773438 58.941406 82.203125 C 56.363281 86.554688 51.953125 88.730469 47.125 90.101562 C 42.859375 91.210938 38.542969 92.066406 34.179688 92.667969 C 33.039062 92.84375 33.039062 94.792969 34.179688 94.976562 C 38.132812 95.589844 42.105469 96.238281 45.980469 97.230469 C 48.6875 97.847656 51.253906 98.828125 53.683594 100.175781 C 58.03125 102.75 60.203125 107.171875 61.574219 112.003906 C 62.6875 116.269531 63.542969 120.585938 64.136719 124.953125 C 64.3125 126.09375 66.261719 126.101562 66.441406 124.953125 C 67.058594 120.996094 67.703125 117.027344 68.703125 113.140625 C 69.304688 110.433594 70.273438 107.863281 71.601562 105.433594 C 74.179688 101.082031 78.59375 98.90625 83.417969 97.535156 C 87.683594 96.425781 91.996094 95.574219 96.359375 94.976562 C 97.875 94.679688 97.234375 92.371094 95.730469 92.609375 Z M 95.730469 92.609375 " fill-opacity="1" fill-rule="nonzero"/><path fill="#ffffff" d="M 299.804688 149.175781 C 299.804688 150.035156 299.722656 150.886719 299.554688 151.730469 C 299.386719 152.570312 299.136719 153.390625 298.808594 154.183594 C 298.480469 154.976562 298.078125 155.730469 297.601562 156.445312 C 297.125 157.160156 296.582031 157.820312 295.976562 158.425781 C 295.371094 159.035156 294.710938 159.578125 293.996094 160.054688 C 293.28125 160.53125 292.527344 160.933594 291.734375 161.261719 C 290.941406 161.589844 290.125 161.839844 289.285156 162.007812 C 288.441406 162.175781 287.59375 162.257812 286.734375 162.257812 C 285.875 162.257812 285.027344 162.175781 284.183594 162.007812 C 283.34375 161.839844 282.523438 161.589844 281.730469 161.261719 C 280.9375 160.933594 280.1875 160.53125 279.472656 160.054688 C 278.757812 159.578125 278.097656 159.035156 277.492188 158.425781 C 276.886719 157.820312 276.34375 157.160156 275.867188 156.445312 C 275.390625 155.730469 274.988281 154.976562 274.660156 154.183594 C 274.328125 153.390625 274.082031 152.570312 273.914062 151.730469 C 273.746094 150.886719 273.664062 150.035156 273.664062 149.175781 C 273.664062 148.316406 273.746094 147.464844 273.914062 146.625 C 274.082031 145.78125 274.328125 144.964844 274.660156 144.167969 C 274.988281 143.375 275.390625 142.621094 275.867188 141.90625 C 276.34375 141.195312 276.886719 140.53125 277.492188 139.925781 C 278.097656 139.316406 278.757812 138.777344 279.472656 138.296875 C 280.1875 137.820312 280.9375 137.417969 281.730469 137.089844 C 282.523438 136.761719 283.34375 136.511719 284.183594 136.34375 C 285.027344 136.175781 285.875 136.09375 286.734375 136.09375 C 287.59375 136.09375 288.441406 136.175781 289.285156 136.34375 C 290.125 136.511719 290.941406 136.761719 291.734375 137.089844 C 292.527344 137.417969 293.28125 137.820312 293.996094 138.296875 C 294.710938 138.777344 295.371094 139.316406 295.976562 139.925781 C 296.582031 140.53125 297.125 141.195312 297.601562 141.90625 C 298.078125 142.621094 298.480469 143.375 298.808594 144.167969 C 299.136719 144.964844 299.386719 145.78125 299.554688 146.625 C 299.722656 147.464844 299.804688 148.316406 299.804688 149.175781 Z M 299.804688 149.175781 " fill-opacity="1" fill-rule="nonzero"/><path fill="#000f66" d="M 298.609375 149.175781 C 298.609375 149.988281 298.527344 150.792969 298.363281 151.589844 C 298.199219 152.382812 297.957031 153.15625 297.632812 153.902344 C 297.308594 154.648438 296.914062 155.351562 296.449219 156.015625 C 295.980469 156.683594 295.453125 157.292969 294.859375 157.847656 C 294.269531 158.40625 293.625 158.894531 292.933594 159.320312 C 292.242188 159.742188 291.511719 160.09375 290.75 160.367188 C 289.984375 160.640625 289.199219 160.835938 288.394531 160.949219 C 287.59375 161.0625 286.785156 161.09375 285.976562 161.042969 C 285.164062 160.992188 284.367188 160.855469 283.585938 160.640625 C 282.800781 160.425781 282.050781 160.132812 281.328125 159.761719 C 280.605469 159.394531 279.925781 158.953125 279.292969 158.445312 C 278.660156 157.933594 278.085938 157.367188 277.570312 156.738281 C 277.054688 156.113281 276.605469 155.4375 276.226562 154.71875 C 275.847656 154 275.546875 153.25 275.324219 152.46875 C 275.097656 151.6875 274.953125 150.894531 274.894531 150.082031 C 274.832031 149.273438 274.851562 148.464844 274.957031 147.660156 C 275.0625 146.851562 275.246094 146.066406 275.511719 145.296875 C 275.777344 144.53125 276.117188 143.796875 276.53125 143.097656 C 276.945312 142.402344 277.429688 141.75 277.976562 141.152344 C 278.527344 140.554688 279.128906 140.015625 279.789062 139.539062 C 280.445312 139.066406 281.144531 138.660156 281.886719 138.328125 C 282.628906 138 283.394531 137.746094 284.1875 137.570312 C 284.980469 137.398438 285.785156 137.304688 286.597656 137.296875 C 287.40625 137.285156 288.210938 137.359375 289.007812 137.515625 C 289.675781 137.652344 290.328125 137.84375 290.964844 138.089844 C 291.601562 138.339844 292.210938 138.636719 292.792969 138.988281 C 293.378906 139.339844 293.929688 139.738281 294.445312 140.1875 C 294.960938 140.632812 295.4375 141.117188 295.871094 141.644531 C 296.304688 142.171875 296.6875 142.730469 297.027344 143.324219 C 297.363281 143.917969 297.652344 144.535156 297.882812 145.175781 C 298.117188 145.816406 298.292969 146.472656 298.414062 147.144531 C 298.535156 147.816406 298.597656 148.492188 298.601562 149.175781 C 298.601562 150.714844 301.007812 150.722656 300.992188 149.175781 C 300.992188 148.6875 300.96875 148.203125 300.917969 147.71875 C 300.867188 147.234375 300.792969 146.753906 300.695312 146.277344 C 300.597656 145.796875 300.472656 145.328125 300.328125 144.863281 C 300.179688 144.398438 300.007812 143.941406 299.816406 143.496094 C 299.621094 143.050781 299.40625 142.613281 299.167969 142.1875 C 298.929688 141.761719 298.671875 141.351562 298.390625 140.953125 C 298.109375 140.554688 297.808594 140.171875 297.492188 139.804688 C 297.171875 139.4375 296.832031 139.085938 296.480469 138.753906 C 296.125 138.421875 295.75 138.105469 295.363281 137.8125 C 294.976562 137.515625 294.574219 137.242188 294.160156 136.988281 C 293.746094 136.734375 293.316406 136.503906 292.878906 136.292969 C 292.4375 136.082031 291.988281 135.894531 291.53125 135.730469 C 291.074219 135.566406 290.609375 135.425781 290.136719 135.3125 C 289.664062 135.195312 289.183594 135.101562 288.703125 135.035156 C 288.222656 134.96875 287.738281 134.925781 287.25 134.90625 C 286.761719 134.890625 286.277344 134.894531 285.792969 134.929688 C 285.304688 134.960938 284.824219 135.015625 284.34375 135.097656 C 283.863281 135.179688 283.390625 135.285156 282.917969 135.414062 C 282.449219 135.546875 281.988281 135.699219 281.535156 135.875 C 281.082031 136.054688 280.640625 136.253906 280.207031 136.476562 C 279.773438 136.699219 279.351562 136.941406 278.945312 137.207031 C 278.535156 137.472656 278.144531 137.761719 277.765625 138.066406 C 277.386719 138.371094 277.023438 138.695312 276.679688 139.039062 C 276.332031 139.382812 276.003906 139.742188 275.695312 140.121094 C 275.386719 140.496094 275.097656 140.886719 274.832031 141.292969 C 274.5625 141.699219 274.316406 142.121094 274.089844 142.550781 C 273.863281 142.984375 273.660156 143.425781 273.480469 143.878906 C 273.296875 144.328125 273.140625 144.789062 273.007812 145.257812 C 272.875 145.726562 272.765625 146.203125 272.679688 146.679688 C 272.59375 147.160156 272.535156 147.644531 272.5 148.128906 C 272.464844 148.617188 272.453125 149.101562 272.464844 149.589844 C 272.480469 150.078125 272.519531 150.5625 272.582031 151.042969 C 272.648438 151.527344 272.734375 152.007812 272.847656 152.480469 C 272.960938 152.953125 273.097656 153.421875 273.257812 153.882812 C 273.417969 154.339844 273.601562 154.792969 273.808594 155.234375 C 274.015625 155.675781 274.242188 156.105469 274.492188 156.519531 C 274.742188 156.9375 275.015625 157.34375 275.304688 157.734375 C 275.597656 158.125 275.910156 158.496094 276.238281 158.855469 C 276.570312 159.214844 276.914062 159.554688 277.28125 159.875 C 277.644531 160.199219 278.027344 160.503906 278.421875 160.785156 C 278.816406 161.070312 279.226562 161.332031 279.648438 161.574219 C 280.070312 161.816406 280.503906 162.035156 280.949219 162.234375 C 281.394531 162.429688 281.851562 162.605469 282.3125 162.753906 C 282.777344 162.90625 283.246094 163.03125 283.722656 163.136719 C 284.195312 163.238281 284.675781 163.316406 285.160156 163.367188 C 285.644531 163.421875 286.128906 163.453125 286.617188 163.453125 C 287.101562 163.457031 287.589844 163.4375 288.074219 163.390625 C 288.558594 163.34375 289.039062 163.273438 289.515625 163.179688 C 290.316406 163.011719 291.09375 162.773438 291.851562 162.472656 C 292.609375 162.171875 293.339844 161.808594 294.035156 161.382812 C 294.734375 160.957031 295.390625 160.476562 296.007812 159.941406 C 296.621094 159.40625 297.191406 158.824219 297.707031 158.191406 C 298.226562 157.558594 298.6875 156.890625 299.089844 156.179688 C 299.496094 155.46875 299.835938 154.730469 300.117188 153.964844 C 300.398438 153.195312 300.609375 152.410156 300.757812 151.605469 C 300.902344 150.804688 300.984375 149.992188 300.992188 149.175781 C 301.015625 147.640625 298.625 147.640625 298.609375 149.175781 Z M 298.609375 149.175781 " fill-opacity="1" fill-rule="nonzero"/><path fill="#fad745" d="M 346.871094 175.183594 L 318.570312 204.023438 C 318.40625 204.191406 318.253906 204.371094 318.109375 204.558594 C 317.96875 204.746094 317.839844 204.945312 317.722656 205.148438 C 317.609375 205.355469 317.507812 205.566406 317.417969 205.785156 C 317.328125 206.003906 317.257812 206.226562 317.195312 206.457031 C 317.136719 206.683594 317.09375 206.917969 317.066406 207.152344 C 317.039062 207.382812 317.023438 207.621094 317.027344 207.855469 C 317.027344 208.089844 317.046875 208.328125 317.078125 208.558594 C 317.113281 208.792969 317.160156 209.023438 317.222656 209.25 C 317.285156 209.480469 317.363281 209.703125 317.457031 209.917969 C 317.546875 210.136719 317.652344 210.347656 317.773438 210.550781 C 317.894531 210.753906 318.023438 210.945312 318.171875 211.132812 C 318.316406 211.320312 318.472656 211.496094 318.640625 211.660156 C 318.808594 211.824219 318.988281 211.980469 319.175781 212.121094 C 319.363281 212.261719 319.558594 212.390625 319.765625 212.507812 C 319.96875 212.625 320.183594 212.726562 320.402344 212.816406 C 320.617188 212.902344 320.84375 212.976562 321.070312 213.035156 L 360.195312 223.144531 C 360.425781 223.203125 360.65625 223.246094 360.886719 223.273438 C 361.121094 223.300781 361.355469 223.316406 361.589844 223.3125 C 361.824219 223.308594 362.058594 223.289062 362.292969 223.257812 C 362.523438 223.222656 362.753906 223.175781 362.980469 223.109375 C 363.207031 223.046875 363.429688 222.96875 363.644531 222.875 C 363.859375 222.785156 364.070312 222.679688 364.273438 222.558594 C 364.472656 222.4375 364.667969 222.304688 364.851562 222.160156 C 365.039062 222.015625 365.210938 221.859375 365.375 221.691406 C 365.539062 221.519531 365.691406 221.34375 365.835938 221.15625 C 365.976562 220.96875 366.105469 220.769531 366.21875 220.566406 C 366.335938 220.359375 366.4375 220.148438 366.523438 219.929688 C 366.613281 219.710938 366.683594 219.488281 366.742188 219.261719 C 366.800781 219.035156 366.84375 218.804688 366.875 218.570312 C 366.902344 218.335938 366.914062 218.101562 366.914062 217.867188 C 366.910156 217.632812 366.894531 217.398438 366.859375 217.164062 C 366.828125 216.929688 366.78125 216.699219 366.71875 216.472656 L 355.914062 177.515625 C 355.851562 177.289062 355.773438 177.066406 355.679688 176.851562 C 355.585938 176.636719 355.480469 176.425781 355.363281 176.222656 C 355.242188 176.019531 355.109375 175.824219 354.964844 175.640625 C 354.820312 175.453125 354.660156 175.28125 354.492188 175.113281 C 354.324219 174.949219 354.148438 174.796875 353.960938 174.65625 C 353.769531 174.511719 353.574219 174.386719 353.371094 174.269531 C 353.164062 174.152344 352.953125 174.050781 352.734375 173.964844 C 352.515625 173.875 352.292969 173.800781 352.066406 173.742188 C 351.835938 173.683594 351.605469 173.640625 351.371094 173.613281 C 351.140625 173.582031 350.90625 173.570312 350.667969 173.570312 C 350.433594 173.574219 350.199219 173.589844 349.964844 173.625 C 349.734375 173.65625 349.503906 173.703125 349.277344 173.765625 C 349.050781 173.832031 348.828125 173.90625 348.609375 174 C 348.394531 174.089844 348.183594 174.195312 347.980469 174.316406 C 347.777344 174.4375 347.582031 174.566406 347.398438 174.710938 C 347.210938 174.859375 347.035156 175.015625 346.871094 175.183594 Z M 346.871094 175.183594 " fill-opacity="1" fill-rule="nonzero"/><path fill="#000f66" d="M 346.03125 174.332031 L 338.214844 182.308594 L 324.136719 196.632812 L 319.152344 201.710938 C 317.992188 202.890625 316.78125 203.988281 316.195312 205.605469 C 316.046875 206.035156 315.949219 206.480469 315.894531 206.933594 C 315.839844 207.386719 315.832031 207.84375 315.871094 208.296875 C 315.910156 208.753906 315.992188 209.199219 316.121094 209.636719 C 316.253906 210.074219 316.425781 210.496094 316.640625 210.898438 C 316.859375 211.300781 317.113281 211.675781 317.40625 212.027344 C 317.699219 212.378906 318.027344 212.695312 318.386719 212.976562 C 318.742188 213.261719 319.125 213.503906 319.535156 213.707031 C 319.945312 213.914062 320.367188 214.074219 320.808594 214.191406 C 322.078125 214.539062 323.359375 214.851562 324.636719 215.175781 L 342.707031 219.839844 L 358.472656 223.914062 C 360.582031 224.457031 362.609375 224.800781 364.667969 223.699219 C 367.636719 222.101562 368.601562 218.75 367.746094 215.648438 L 363.890625 201.765625 L 358.675781 182.914062 L 357.226562 177.699219 C 356.5 175.042969 354.683594 172.882812 351.84375 172.410156 C 350.78125 172.238281 349.742188 172.316406 348.71875 172.644531 C 347.695312 172.972656 346.804688 173.515625 346.046875 174.273438 C 344.945312 175.347656 346.632812 177.039062 347.734375 175.964844 C 347.867188 175.835938 348.003906 175.714844 348.152344 175.601562 C 348.300781 175.492188 348.453125 175.390625 348.613281 175.296875 C 348.773438 175.207031 348.941406 175.125 349.113281 175.058594 C 349.28125 174.988281 349.457031 174.929688 349.636719 174.882812 C 349.816406 174.835938 349.996094 174.800781 350.179688 174.777344 C 350.363281 174.753906 350.546875 174.742188 350.730469 174.742188 C 350.914062 174.742188 351.101562 174.757812 351.28125 174.78125 C 351.464844 174.804688 351.648438 174.84375 351.824219 174.890625 C 352.003906 174.941406 352.175781 175 352.347656 175.070312 C 352.519531 175.140625 352.683594 175.222656 352.84375 175.316406 C 353.003906 175.410156 353.15625 175.511719 353.300781 175.625 C 353.449219 175.738281 353.585938 175.859375 353.71875 175.988281 C 353.847656 176.121094 353.96875 176.261719 354.082031 176.40625 C 354.195312 176.554688 354.296875 176.707031 354.390625 176.867188 C 354.480469 177.027344 354.5625 177.191406 354.632812 177.363281 C 354.707031 177.535156 354.765625 177.707031 354.8125 177.886719 C 355.175781 179.140625 355.539062 180.394531 355.855469 181.652344 L 360.609375 198.785156 L 364.957031 214.539062 C 365.289062 215.75 365.863281 217.164062 365.679688 218.433594 C 365.601562 218.953125 365.433594 219.445312 365.171875 219.902344 C 364.914062 220.363281 364.578125 220.757812 364.171875 221.09375 C 363.765625 221.429688 363.308594 221.679688 362.808594 221.847656 C 362.308594 222.011719 361.796875 222.082031 361.269531 222.058594 C 360.800781 222.011719 360.34375 221.917969 359.890625 221.78125 L 346.632812 218.390625 L 328.273438 213.640625 L 322.511719 212.1875 C 320.78125 211.738281 319.152344 211.152344 318.46875 209.289062 C 317.746094 207.226562 318.730469 205.597656 320.105469 204.210938 L 324.128906 200.113281 L 337.285156 186.707031 L 347.199219 176.601562 L 347.71875 176.074219 C 348.800781 174.929688 347.109375 173.230469 346.03125 174.332031 Z M 346.03125 174.332031 " fill-opacity="1" fill-rule="nonzero"/><g fill="#ffffff" fill-opacity="1"><g transform="translate(180.539055, 366.284362)"><g><path d="M 8.3125 0.21875 C 6.90625 0.21875 5.800781 -0.296875 5 -1.328125 L 4.828125 -1.328125 C 4.941406 -0.316406 5 0.265625 5 0.421875 L 5 5.28125 L 1.71875 5.28125 L 1.71875 -12.015625 L 4.390625 -12.015625 L 4.84375 -10.453125 L 5 -10.453125 C 5.757812 -11.640625 6.894531 -12.234375 8.40625 -12.234375 C 9.820312 -12.234375 10.929688 -11.6875 11.734375 -10.59375 C 12.535156 -9.5 12.9375 -7.976562 12.9375 -6.03125 C 12.9375 -4.75 12.75 -3.632812 12.375 -2.6875 C 12 -1.738281 11.460938 -1.015625 10.765625 -0.515625 C 10.066406 -0.0234375 9.25 0.21875 8.3125 0.21875 Z M 7.34375 -9.609375 C 6.539062 -9.609375 5.953125 -9.359375 5.578125 -8.859375 C 5.203125 -8.367188 5.007812 -7.550781 5 -6.40625 L 5 -6.046875 C 5 -4.753906 5.1875 -3.828125 5.5625 -3.265625 C 5.945312 -2.710938 6.554688 -2.4375 7.390625 -2.4375 C 8.859375 -2.4375 9.59375 -3.644531 9.59375 -6.0625 C 9.59375 -7.25 9.410156 -8.132812 9.046875 -8.71875 C 8.691406 -9.3125 8.125 -9.609375 7.34375 -9.609375 Z M 7.34375 -9.609375 "/></g></g></g></svg>