<svg xmlns="http://www.w3.org/2000/svg" xmlns:xlink="http://www.w3.org/1999/xlink" width="500" zoomAndPan="magnify" viewBox="0 0 375 374.999991" height="500" preserveAspectRatio="xMidYMid meet" version="1.0"><defs><clipPath id="cdee96cd3a"><path d="M 187.5 0 C 83.945312 0 0 83.945312 0 187.5 C 0 291.054688 83.945312 375 187.5 375 C 291.054688 375 375 291.054688 375 187.5 C 375 83.945312 291.054688 0 187.5 0 Z M 187.5 0 " clip-rule="nonzero"/></clipPath><clipPath id="fb2b51d41b"><path d="M 92 96.957031 L 246 96.957031 L 246 277.707031 L 92 277.707031 Z M 92 96.957031 " clip-rule="nonzero"/></clipPath></defs><g clip-path="url(#cdee96cd3a)"><rect x="-37.5" width="450" fill="#f6d6d1" y="-37.499999" height="449.999989" fill-opacity="1"/></g><path fill="#000000" d="M 176.574219 218.863281 L 191.695312 233.976562 L 172.507812 238.042969 Z M 246.050781 169.191406 L 253 176.136719 L 197.429688 231.636719 L 190.480469 224.695312 Z M 234.476562 157.632812 L 242.015625 165.152344 L 186.433594 220.667969 L 178.90625 213.152344 Z M 243.195312 148.910156 L 261.730469 167.414062 L 257.03125 172.121094 L 238.492188 153.605469 Z M 270.253906 140.398438 C 275.632812 145.722656 276.078125 153.082031 272.269531 156.875 L 265.761719 163.390625 L 247.242188 144.898438 L 253.757812 138.386719 C 258.574219 133.5625 266 136.203125 270.253906 140.398438 Z M 249.730469 134.359375 L 172.859375 211.136719 L 172.085938 212.5625 L 166.011719 241.128906 L 169.390625 244.503906 L 198.023438 238.449219 L 199.433594 237.675781 L 276.316406 160.902344 C 282.757812 154.46875 281.710938 143.199219 274.285156 136.386719 C 267.28125 129.964844 256.785156 127.308594 249.730469 134.359375 Z M 249.730469 134.359375 " fill-opacity="1" fill-rule="evenodd"/><g clip-path="url(#fb2b51d41b)"><path fill="#000000" d="M 106.90625 226.15625 L 106.90625 246.109375 C 104.011719 245.628906 101.445312 243.875 99.941406 241.210938 C 98.160156 238.070312 98.160156 234.199219 99.941406 231.046875 C 101.445312 228.394531 104.011719 226.644531 106.90625 226.15625 Z M 106.90625 182.410156 L 106.90625 202.351562 C 104.011719 201.867188 101.445312 200.113281 99.941406 197.457031 C 98.160156 194.320312 98.160156 190.449219 99.941406 187.300781 C 101.445312 184.648438 104.011719 182.894531 106.90625 182.410156 Z M 106.90625 138.636719 L 106.90625 158.601562 C 104.011719 158.117188 101.445312 156.367188 99.941406 153.710938 C 98.160156 150.574219 98.160156 146.675781 99.941406 143.539062 C 101.445312 140.871094 104.011719 139.121094 106.90625 138.636719 Z M 106.90625 96.964844 L 106.90625 132.90625 C 101.945312 133.429688 97.492188 136.320312 94.992188 140.742188 C 92.21875 145.617188 92.21875 151.617188 94.992188 156.507812 C 97.492188 160.910156 101.945312 163.804688 106.90625 164.328125 L 106.90625 176.667969 C 101.945312 177.183594 97.492188 180.070312 94.992188 184.488281 C 92.21875 189.363281 92.21875 195.394531 94.992188 200.28125 C 97.492188 204.6875 101.945312 207.566406 106.90625 208.074219 L 106.90625 220.429688 C 101.945312 220.953125 97.492188 223.84375 94.992188 228.261719 C 92.21875 233.136719 92.21875 239.140625 94.992188 244.027344 C 97.492188 248.4375 101.945312 251.328125 106.90625 251.847656 L 106.90625 277.75 L 245.332031 277.75 L 245.332031 206.117188 L 239.632812 206.117188 L 239.632812 272.066406 L 112.613281 272.066406 L 112.613281 226.015625 L 123.558594 226.015625 L 123.558594 220.324219 L 112.613281 220.324219 L 112.613281 182.265625 L 123.558594 182.265625 L 123.558594 176.550781 L 112.613281 176.550781 L 112.613281 138.492188 L 123.558594 138.492188 L 123.558594 132.800781 L 112.613281 132.800781 L 112.613281 102.652344 L 239.632812 102.652344 L 239.632812 129.640625 L 245.332031 129.640625 L 245.332031 96.964844 Z M 106.90625 96.964844 " fill-opacity="1" fill-rule="evenodd"/></g><path fill="#000000" d="M 137.542969 132.800781 L 214.722656 132.800781 L 214.722656 138.492188 L 137.542969 138.492188 Z M 137.542969 132.800781 " fill-opacity="1" fill-rule="nonzero"/><path fill="#000000" d="M 137.542969 176.554688 L 186.355469 176.554688 L 186.355469 182.269531 L 137.542969 182.269531 Z M 137.542969 176.554688 " fill-opacity="1" fill-rule="nonzero"/><path fill="#000000" d="M 137.542969 220.328125 L 160.699219 220.328125 L 160.699219 226.015625 L 137.542969 226.015625 Z M 137.542969 220.328125 " fill-opacity="1" fill-rule="nonzero"/><path fill="#000000" d="M 137.542969 154.691406 L 205.835938 154.691406 L 205.835938 160.378906 L 137.542969 160.378906 Z M 137.542969 154.691406 " fill-opacity="1" fill-rule="nonzero"/><path fill="#000000" d="M 137.542969 198.441406 L 160.699219 198.441406 L 160.699219 204.128906 L 137.542969 204.128906 Z M 137.542969 198.441406 " fill-opacity="1" fill-rule="nonzero"/></svg>